<svg xmlns="http://www.w3.org/2000/svg" xmlns:xlink="http://www.w3.org/1999/xlink" width="677.728" height="635.715" viewBox="0 0 677.728 635.715">
  <defs>
    <filter id="Polygon_1" x="0" y="0" width="677.728" height="635.715" filterUnits="userSpaceOnUse">
      <feOffset dy="3" input="SourceAlpha"/>
      <feGaussianBlur stdDeviation="8" result="blur"/>
      <feFlood flood-color="#61ce70" flood-opacity="0.2"/>
      <feComposite operator="in" in2="blur"/>
      <feComposite in="SourceGraphic"/>
    </filter>
    <clipPath id="clip-path">
      <path id="Path_743" data-name="Path 743" d="M341.876,492.26,314.42,329.428l1.868-1.078,27.45,162.832Z" transform="translate(-314.42 -328.35)"/>
    </clipPath>
    <clipPath id="clip-path-2">
      <path id="Path_767" data-name="Path 767" d="M302.206,515.166,274.75,352.323l1.873-1.083,27.456,162.843Z" transform="translate(-274.75 -351.24)"/>
    </clipPath>
    <linearGradient id="linear-gradient" x1="70.481" y1="-13.983" x2="71.237" y2="-13.983" gradientUnits="objectBoundingBox">
      <stop offset="0" stop-color="#ffdfb0"/>
      <stop offset="1" stop-color="#ffcbad"/>
    </linearGradient>
    <linearGradient id="linear-gradient-2" x1="4.004" y1="-0.636" x2="4.952" y2="-0.636" gradientUnits="objectBoundingBox">
      <stop offset="0" stop-color="#ffdba7"/>
      <stop offset="1" stop-color="#ffc5a4"/>
    </linearGradient>
    <linearGradient id="linear-gradient-3" x1="56.889" y1="-14.181" x2="57.599" y2="-14.181" xlink:href="#linear-gradient"/>
    <linearGradient id="linear-gradient-4" x1="63.34" y1="-27.073" x2="64.219" y2="-27.073" xlink:href="#linear-gradient-2"/>
    <linearGradient id="linear-gradient-5" x1="0" y1="0.5" x2="1" y2="0.5" xlink:href="#linear-gradient-2"/>
    <linearGradient id="linear-gradient-6" x1="40.585" y1="-9.77" x2="41.391" y2="-9.77" xlink:href="#linear-gradient"/>
    <linearGradient id="linear-gradient-7" x1="46.747" y1="-10.428" x2="47.464" y2="-10.428" xlink:href="#linear-gradient"/>
    <linearGradient id="linear-gradient-8" x1="38.962" y1="-12.149" x2="39.919" y2="-12.149" xlink:href="#linear-gradient-2"/>
    <linearGradient id="linear-gradient-9" x1="215.092" y1="-107.85" x2="216.152" y2="-107.85" xlink:href="#linear-gradient"/>
    <linearGradient id="linear-gradient-10" x1="0" y1="0.5" x2="1" y2="0.5" xlink:href="#linear-gradient-2"/>
    <linearGradient id="linear-gradient-11" x1="0.001" y1="0.5" x2="1" y2="0.5" xlink:href="#linear-gradient-2"/>
    <linearGradient id="linear-gradient-13" x1="409.27" y1="0.5" x2="410.27" y2="0.5" xlink:href="#linear-gradient"/>
    <linearGradient id="linear-gradient-14" x1="651.241" y1="0.5" x2="652.241" y2="0.5" xlink:href="#linear-gradient"/>
    <linearGradient id="linear-gradient-15" x1="615.66" y1="0.5" x2="616.659" y2="0.5" xlink:href="#linear-gradient"/>
    <linearGradient id="linear-gradient-16" x1="600.449" y1="0.5" x2="601.45" y2="0.5" xlink:href="#linear-gradient"/>
    <linearGradient id="linear-gradient-17" x1="522.397" y1="0.5" x2="523.396" y2="0.5" xlink:href="#linear-gradient-2"/>
    <linearGradient id="linear-gradient-18" x1="678.431" y1="0.498" x2="679.432" y2="0.498" xlink:href="#linear-gradient-2"/>
    <linearGradient id="linear-gradient-19" x1="1240.684" y1="0.5" x2="1241.686" y2="0.5" xlink:href="#linear-gradient-2"/>
    <clipPath id="clip-path-3">
      <path id="Path_869" data-name="Path 869" d="M723.291,254.426l-5.869-3.41a9.291,9.291,0,0,0-2.332-.956l5.869,3.41A9.287,9.287,0,0,1,723.291,254.426Z" transform="translate(-715.09 -250.06)"/>
    </clipPath>
    <clipPath id="clip-path-4">
      <path id="Path_871" data-name="Path 871" d="M659.119,350.7l-5.869-3.41a13.451,13.451,0,0,0,2.194,2.249l5.869,3.41A13.238,13.238,0,0,1,659.119,350.7Z" transform="translate(-653.25 -347.29)"/>
    </clipPath>
    <clipPath id="clip-path-5">
      <path id="Path_875" data-name="Path 875" d="M720.875,234.293l-5.869-3.41a18.544,18.544,0,0,0-4.526.293l5.869,3.41A18.509,18.509,0,0,1,720.875,234.293Z" transform="translate(-710.48 -230.851)"/>
    </clipPath>
    <clipPath id="clip-path-6">
      <path id="Path_877" data-name="Path 877" d="M666.389,312.53l-5.869-3.41c-.072.851-.116,1.7-.111,2.537a18.065,18.065,0,0,0,1.531,7.671l5.869,3.41a17.979,17.979,0,0,1-1.531-7.671C666.279,314.232,666.323,313.381,666.389,312.53Z" transform="translate(-660.409 -309.12)"/>
    </clipPath>
    <clipPath id="clip-path-7">
      <path id="Path_879" data-name="Path 879" d="M701.284,254.69l-5.869-3.41a22.438,22.438,0,0,0-3.382,1.608,29.054,29.054,0,0,0-3.382,2.3l5.869,3.41a28.145,28.145,0,0,1,3.382-2.3A23.572,23.572,0,0,1,701.284,254.69Z" transform="translate(-688.65 -251.28)"/>
    </clipPath>
    <clipPath id="clip-path-8">
      <path id="Path_881" data-name="Path 881" d="M676.213,276.91l-5.869-3.41a45.847,45.847,0,0,0-5.134,9.472l5.869,3.41A46.248,46.248,0,0,1,676.213,276.91Z" transform="translate(-665.21 -273.5)"/>
    </clipPath>
    <clipPath id="clip-path-9">
      <path id="Path_884" data-name="Path 884" d="M654.109,302.99l-5.869-3.41a48.494,48.494,0,0,0-1.26,5.62l5.869,3.41A48.507,48.507,0,0,1,654.109,302.99Z" transform="translate(-646.98 -299.58)"/>
    </clipPath>
    <clipPath id="clip-path-10">
      <path id="Path_886" data-name="Path 886" d="M681.219,253.03l-5.869-3.41a57.248,57.248,0,0,0-4.51,4.919l5.869,3.41A57.282,57.282,0,0,1,681.219,253.03Z" transform="translate(-670.84 -249.62)"/>
    </clipPath>
    <clipPath id="clip-path-11">
      <path id="Path_893" data-name="Path 893" d="M587.75,351.187l4.7,2.73c-.072-.039-.138-.083-.21-.127l-4.7-2.73C587.612,351.1,587.684,351.148,587.75,351.187Z" transform="translate(-587.54 -351.06)"/>
    </clipPath>
    <clipPath id="clip-path-12">
      <path id="Path_896" data-name="Path 896" d="M640.573,265.319l-4.7-2.73a8.866,8.866,0,0,0-3.625-1.138l4.7,2.73A8.867,8.867,0,0,1,640.573,265.319Z" transform="translate(-632.25 -261.45)"/>
    </clipPath>
    <clipPath id="clip-path-13">
      <path id="Path_898" data-name="Path 898" d="M591.078,332.87l-4.7-2.73a10.415,10.415,0,0,0,2.946,4.686l4.7,2.73A10.293,10.293,0,0,1,591.078,332.87Z" transform="translate(-586.38 -330.14)"/>
    </clipPath>
    <clipPath id="clip-path-14">
      <path id="Path_901" data-name="Path 901" d="M634.653,252.7l-4.7-2.73a16.961,16.961,0,0,0-3.946.7l4.7,2.73A16.724,16.724,0,0,1,634.653,252.7Z" transform="translate(-626.01 -249.97)"/>
    </clipPath>
    <clipPath id="clip-path-15">
      <path id="Path_903" data-name="Path 903" d="M621.5,266.33l-4.7-2.73a21.056,21.056,0,0,0-2.321,1.155,27.41,27.41,0,0,0-2.321,1.52l4.7,2.73a25.338,25.338,0,0,1,2.321-1.52A22.629,22.629,0,0,1,621.5,266.33Z" transform="translate(-612.16 -263.6)"/>
    </clipPath>
    <clipPath id="clip-path-16">
      <path id="Path_906" data-name="Path 906" d="M580.777,330.42l-4.7-2.73a23.271,23.271,0,0,0,.5,3.891l4.7,2.73A23.857,23.857,0,0,1,580.777,330.42Z" transform="translate(-576.08 -327.69)"/>
    </clipPath>
    <clipPath id="clip-path-17">
      <path id="Path_908" data-name="Path 908" d="M590.876,308.14l-4.7-2.73a30.284,30.284,0,0,0-1.188,6.908l4.7,2.73A29.689,29.689,0,0,1,590.876,308.14Z" transform="translate(-584.99 -305.41)"/>
    </clipPath>
    <clipPath id="clip-path-18">
      <path id="Path_910" data-name="Path 910" d="M602.112,282.51l-4.7-2.73a42.2,42.2,0,0,0-3.824,5.7l4.7,2.73A41.849,41.849,0,0,1,602.112,282.51Z" transform="translate(-593.59 -279.78)"/>
    </clipPath>
    <clipPath id="clip-path-19">
      <path id="Path_913" data-name="Path 913" d="M608.172,265.13l-4.7-2.73a43.018,43.018,0,0,0-3.935,3.852l4.7,2.73A43.779,43.779,0,0,1,608.172,265.13Z" transform="translate(-599.54 -262.4)"/>
    </clipPath>
    <clipPath id="clip-path-20">
      <path id="Path_916" data-name="Path 916" d="M587.148,295.23l-4.7-2.73a49.108,49.108,0,0,0-2.1,5.09l4.7,2.73A49.14,49.14,0,0,1,587.148,295.23Z" transform="translate(-580.35 -292.5)"/>
    </clipPath>
    <clipPath id="clip-path-21">
      <path id="Path_919" data-name="Path 919" d="M639.161,281.048l-1.763-1.022c-2.343-1.359-5.587-1.172-9.168.9l1.763,1.022C633.574,279.877,636.818,279.684,639.161,281.048Z" transform="translate(-628.23 -279.157)"/>
    </clipPath>
    <clipPath id="clip-path-22">
      <path id="Path_921" data-name="Path 921" d="M608.768,312.851l1.763,1.022c-2.316-1.343-3.747-4.2-3.758-8.262-.022-8.179,5.725-18.132,12.838-22.239l-1.763-1.022c-7.118,4.106-12.866,14.065-12.838,22.239C605.021,308.651,606.452,311.508,608.768,312.851Z" transform="translate(-605.01 -282.35)"/>
    </clipPath>
    <clipPath id="clip-path-23">
      <path id="Path_924" data-name="Path 924" d="M717.867,293.791l-11-6.394c-1.138-.663-2.713-.569-4.449.437l11,6.394C715.159,293.222,716.734,293.128,717.867,293.791Z" transform="translate(-702.42 -286.974)"/>
    </clipPath>
    <clipPath id="clip-path-24">
      <path id="Path_926" data-name="Path 926" d="M692.974,303.33l11,6.394c-1.122-.652-1.818-2.039-1.824-4.007a13.75,13.75,0,0,1,6.228-10.793l-11-6.394a13.735,13.735,0,0,0-6.228,10.793C691.156,301.291,691.852,302.678,692.974,303.33Z" transform="translate(-691.15 -288.53)"/>
    </clipPath>
  </defs>
  <g id="Group_455" data-name="Group 455" transform="translate(-256.272 -2030)">
    <g transform="matrix(1, 0, 0, 1, 256.27, 2030)" filter="url(#Polygon_1)">
      <path id="Polygon_1-2" data-name="Polygon 1" d="M378.807,0a10,10,0,0,1,8.665,5.008L509.906,217.515a10,10,0,0,1,0,9.984L387.472,440.007a10,10,0,0,1-8.665,5.008H133.975a10,10,0,0,1-8.665-5.008L2.876,227.5a10,10,0,0,1,0-9.984L125.31,5.008A10,10,0,0,1,133.975,0Z" transform="translate(168.88 21) rotate(19)" fill="#fff"/>
    </g>
    <g id="_2002.i201.011_programming_coding_development_isometric_Converted_" data-name="2002.i201.011_programming coding development isometric [Converted]" transform="translate(378.14 2085.13)">
      <g id="Group_240" data-name="Group 240" transform="translate(25.571 171.771)">
        <path id="Path_703" data-name="Path 703" d="M424.635,422.162l-1.067-.006c-4.548-25.466-23.769-50.274-57.652-69.838-77.945-45-203.927-45.229-281.386-.508-33.358,19.26-52.264,43.714-56.768,68.915l-1.072-.006v11.9c.022,29.506,19.6,59.073,58.719,81.654,77.945,45,203.927,45.229,281.386.508,38.575-22.272,57.835-51.49,57.829-80.769Z" transform="translate(-26.072 -301.599)" fill="#e6e8ea"/>
        <path id="Path_704" data-name="Path 704" d="M424.64,408.615H424.5c-1.752-28.124-21.282-56.005-58.575-77.537-77.945-45-203.927-45.229-281.386-.508C47.994,351.67,28.783,379,26.866,406.725H26.7v4.67c.028,29.5,19.613,59.061,58.719,81.643,77.945,45,203.927,45.229,281.386.508,38.177-22.04,57.431-50.888,57.818-79.869l.022-.006v-5.057Z" transform="translate(-26.076 -292.097)" fill="#3a7740"/>
        <ellipse id="Ellipse_15" data-name="Ellipse 15" cx="114.873" cy="198.975" rx="114.873" ry="198.975" transform="translate(0 229.747) rotate(-89.689)" fill="#47914e"/>
        <ellipse id="Ellipse_16" data-name="Ellipse 16" cx="112.707" cy="195.223" rx="112.707" ry="195.223" transform="translate(3.764 225.435) rotate(-89.689)" fill="#61ce70"/>
      </g>
      <path id="Path_705" data-name="Path 705" d="M548.429,252.476a3.526,3.526,0,0,0-3.559.348,11.01,11.01,0,0,0-4.99,8.643,3.5,3.5,0,0,0,1.459,3.205l29.909,17.386a3.486,3.486,0,0,1-1.459-3.205,10.98,10.98,0,0,1,4.99-8.638,3.526,3.526,0,0,1,3.559-.348Z" transform="translate(-230.077 -100.177)" fill="#cfccd2"/>
      <g id="Group_384" data-name="Group 384" transform="translate(76.313 28.204)">
        <g id="Group_308" data-name="Group 308">
          <path id="Path_706" data-name="Path 706" d="M448.834,455.38l110.535-63.82c.912-.525.8-1.442-.254-2.05l-2.4-1.387a3.939,3.939,0,0,0-3.548-.149l-110.541,63.82c-.912.525-.8,1.442.254,2.05l2.4,1.387A3.951,3.951,0,0,0,448.834,455.38Z" transform="translate(-262.606 -188.989)" fill="#c7c7c7"/>
          <ellipse id="Ellipse_17" data-name="Ellipse 17" cx="12.827" cy="22.216" rx="12.827" ry="22.216" transform="translate(137.682 324.336) rotate(-89.689)" fill="#c7c7c7"/>
          <path id="Path_707" data-name="Path 707" d="M161.921,523.84,325.157,429.6c5.935-3.426,5.195-9.417-1.663-13.374l-15.7-9.063c-6.853-3.957-17.226-4.388-23.161-.962L121.4,500.441c-5.935,3.426-5.195,9.417,1.663,13.374l15.7,9.063C145.612,526.841,155.986,527.272,161.921,523.84Z" transform="translate(-117.387 -196.266)" fill="#c7c7c7"/>
          <g id="Group_247" data-name="Group 247" transform="translate(14.265)">
            <g id="Group_246" data-name="Group 246">
              <g id="Group_241" data-name="Group 241" transform="translate(6.864 3.986)">
                <path id="Path_708" data-name="Path 708" d="M339.558,36.154c2.962-1.713,5.377-.337,5.388,3.073l.381,144.96L156,293.489l-.381-144.96a11.793,11.793,0,0,1,5.355-9.273Z" transform="translate(-155.62 -35.417)" fill="#383838"/>
              </g>
              <g id="Group_243" data-name="Group 243" transform="translate(11.467 9.31)">
                <g id="Group_242" data-name="Group 242">
                  <path id="Path_709" data-name="Path 709" d="M344.069,45.05l.365,141.069L164.315,290.111l-.365-141.069Z" transform="translate(-163.95 -45.05)" fill="#c5ffca"/>
                </g>
              </g>
              <g id="Group_245" data-name="Group 245">
                <path id="Path_710" data-name="Path 710" d="M330.968,28.566a3.779,3.779,0,0,0-3.819.376L148.555,132.05a9.472,9.472,0,0,0-2.3,1.929,12.935,12.935,0,0,0-1.857,2.752,10.446,10.446,0,0,0-1.194,4.593l.381,133.785.055,19.569a3.752,3.752,0,0,0,1.57,3.443l6.858,3.985a3.764,3.764,0,0,1-1.57-3.443l-.055-19.569L146.8,143.412A10.427,10.427,0,0,1,148,138.82a12.731,12.731,0,0,1,1.857-2.752,9.365,9.365,0,0,1,2.3-1.923L330.747,31.037a3.793,3.793,0,0,1,3.819-.376Z" transform="translate(-143.2 -28.204)" fill="#a4a4a8"/>
                <g id="Group_244" data-name="Group 244" transform="translate(7.245 152.75)">
                  <path id="Path_711" data-name="Path 711" d="M156.31,413.908,345.636,304.6l.055,8.4a11.8,11.8,0,0,1-5.355,9.273L161.748,425.381c-2.962,1.713-5.377.337-5.388-3.073Z" transform="translate(-156.31 -304.6)" fill="#c6c7cb"/>
                </g>
                <path id="Path_712" data-name="Path 712" d="M337.488,32.356a3.779,3.779,0,0,0-3.819.376L155.075,135.84a9.571,9.571,0,0,0-2.3,1.923,12.934,12.934,0,0,0-1.857,2.752,10.446,10.446,0,0,0-1.194,4.592l.381,144.959,3.255,1.89L152.975,147a10.446,10.446,0,0,1,1.194-4.593,12.731,12.731,0,0,1,1.857-2.752,9.514,9.514,0,0,1,2.3-1.929l178.588-103.1a3.793,3.793,0,0,1,3.819-.376Z" transform="translate(-146.117 -29.899)" fill="#32313a"/>
              </g>
            </g>
          </g>
          <path id="Path_713" data-name="Path 713" d="M372.732,184.379,216.88,274.355,301.612,74.081l65.356-37.735a5.751,5.751,0,0,1,1.056-.486l3.46.7a4.38,4.38,0,0,1,.873,2.863Z" transform="translate(-161.896 -31.629)" fill="#3b3b3b"/>
          <g id="Group_248" data-name="Group 248" transform="translate(34.84 22.838)">
            <path id="Path_714" data-name="Path 714" d="M180.43,181.032V295.137l161.113-93.016V88.01Z" transform="translate(-180.43 -77.797)" fill="#64ff81"/>
            <path id="Path_715" data-name="Path 715" d="M341.543,72.37c0-2.548-1.8-3.57-4.018-2.288L184.448,158.456a8.86,8.86,0,0,0-4.018,6.93v7.378L341.543,79.743Z" transform="translate(-180.43 -69.529)" fill="#53e567"/>
          </g>
          <g id="Group_255" data-name="Group 255" transform="translate(40.632 26.18)">
            <g id="Group_254" data-name="Group 254">
              <g id="Group_249" data-name="Group 249">
                <path id="Path_716" data-name="Path 716" d="M352.023,208.171,190.91,301.187V187.082L352.023,94.06Z" transform="translate(-190.91 -83.845)" fill="#c6c7cb"/>
                <path id="Path_717" data-name="Path 717" d="M192.36,309.534V207.913L351.865,115.82V217.446Z" transform="translate(-191.559 -93.579)" fill="#f5f4fb"/>
                <path id="Path_718" data-name="Path 718" d="M348.006,76.125,194.928,164.5a8.86,8.86,0,0,0-4.018,6.93v7.378L352.023,85.791V78.419C352.023,75.871,350.222,74.849,348.006,76.125Z" transform="translate(-190.91 -75.576)" fill="#c6c7cb"/>
                <path id="Path_719" data-name="Path 719" d="M454.8,96.1a4.488,4.488,0,0,1-2.045,3.52c-1.127.652-2.045.133-2.045-1.166a4.488,4.488,0,0,1,2.045-3.52C453.882,94.28,454.8,94.8,454.8,96.1Z" transform="translate(-307.132 -84.109)" fill="#989aa1"/>
                <path id="Path_720" data-name="Path 720" d="M439.24,105.079a4.48,4.48,0,0,1-2.045,3.52c-1.127.652-2.045.133-2.045-1.166a4.48,4.48,0,0,1,2.045-3.52C438.328,103.261,439.24,103.786,439.24,105.079Z" transform="translate(-300.171 -88.127)" fill="#989aa1"/>
                <path id="Path_721" data-name="Path 721" d="M470.35,87.118a4.48,4.48,0,0,1-2.045,3.52c-1.127.652-2.045.133-2.045-1.166a4.48,4.48,0,0,1,2.045-3.52C469.438,85.3,470.35,85.82,470.35,87.118Z" transform="translate(-314.088 -80.092)" fill="#989aa1"/>
              </g>
              <g id="Group_253" data-name="Group 253" transform="translate(28.213 70.028)">
                <g id="Group_252" data-name="Group 252">
                  <g id="Group_250" data-name="Group 250" transform="translate(0 22.764)">
                    <path id="Path_722" data-name="Path 722" d="M272.439,258.462l4.371,4.051a23.866,23.866,0,0,0-3.951,1.84c-11.633,6.731-21.47,23.659-21.47,36.994,0,.149,0,.293.011.431l-3.708,6.56-5.14-.807a30.627,30.627,0,0,1-.591-6.184c0-16.85,11.506-36.679,26.168-45.157a28.976,28.976,0,0,1,9.633-3.631Z" transform="translate(-241.96 -247.542)" fill="#ffa600"/>
                    <path id="Path_723" data-name="Path 723" d="M288.084,332.75l1.476,7.129a50.879,50.879,0,0,1-15.739,14.993,26.52,26.52,0,0,1-13.076,3.94,16.846,16.846,0,0,1-8.533-2.238,17.931,17.931,0,0,1-8.1-10.771l5.742.9,2.907-5.14c.658,3.244,2.111,5.654,4.167,6.831,2.94,1.7,7.367,1.089,12.164-1.68,4.968-2.874,9.622-7.615,13.313-13.153Z" transform="translate(-242.922 -283.415)" fill="#ffa600"/>
                    <path id="Path_724" data-name="Path 724" d="M336.456,250.7l.088,2.056v.033c-.387.774-.724,1.52-1.056,2.3a39.084,39.084,0,0,0-3.244,14.684,47.58,47.58,0,0,1-3.382,16.9,60.786,60.786,0,0,1-5.267,10.589l-1.453-6.991-5.9.829c4.04-6.831,6.582-14.535,6.582-21.321a48.029,48.029,0,0,1,3.36-16.9,57.256,57.256,0,0,1,2.426-5.482c.58-1.172,1.2-2.338,1.885-3.471l6.355-.453Z" transform="translate(-275.189 -243.48)" fill="#ffa600"/>
                  </g>
                  <g id="Group_251" data-name="Group 251" transform="translate(53.673)">
                    <path id="Path_725" data-name="Path 725" d="M380.81,204.517c-6.013-3.471-13.7-2.868-21.609,1.68-6.582,3.78-12.5,9.848-17.022,16.922l7.295-.519-.409,7.389c3.88-6.582,9.146-12.324,14.844-15.629a17.453,17.453,0,0,1,8.328-2.608,7.783,7.783,0,0,1,3.857.928c2.9,1.68,4.548,5.753,4.548,11.191a25.229,25.229,0,0,1-.16,2.929v.011l3.233,1.3,5.935-8.909.127.077C388.846,212.519,385.734,207.352,380.81,204.517Zm9.257,18.171-5.482,8.229-4.4-1.791c-1.531,9.069-6.742,18.906-13.457,25.77l-.011.011-2.984,8.6,5.366,1.962c12.12-9.682,21-26.792,21-41.6C390.095,223.467,390.084,223.069,390.067,222.688Zm-29.219,42.178L363.2,258.1a30.9,30.9,0,0,1-4,2.758c-4.8,2.769-9.251,3.382-12.164,1.68-2.918-1.68-4.576-5.753-4.576-11.191a47.58,47.58,0,0,1-3.382,16.9A15.915,15.915,0,0,0,342.3,270.7a16.761,16.761,0,0,0,8.555,2.233,26.356,26.356,0,0,0,13.048-3.913c1.022-.591,2.034-1.238,3.017-1.929Z" transform="translate(-339.08 -202.289)" fill="#61ce70"/>
                  </g>
                </g>
                <path id="Path_726" data-name="Path 726" d="M320.2,256.708a48.005,48.005,0,0,0-3.36,16.9c0-5.416-1.68-9.511-4.587-11.169a7.469,7.469,0,0,0-3.824-.956c-.332,0-.658.022-1,.044-.271.022-.547.066-.818.116l-.536-.569-3.222-3,4.78-5.289.558-.752a16.444,16.444,0,0,1,12.009,4.67Z" transform="translate(-269.199 -224.543)" fill="#61ce70"/>
              </g>
            </g>
            <path id="Path_727" data-name="Path 727" d="M347,131.471,238.63,194.036v-6.145L347,125.32Z" transform="translate(-212.258 -97.829)" fill="#ebeaf8"/>
          </g>
          <g id="Group_256" data-name="Group 256" transform="translate(156.23 23.185)">
            <path id="Path_728" data-name="Path 728" d="M513.24,70.705,404.1,133.718a8.86,8.86,0,0,0-4.018,6.93V244l117.172-67.655V73C517.252,70.451,515.456,69.429,513.24,70.705Z" transform="translate(-400.08 -70.156)" fill="#f9e4b4" opacity="0.64"/>
            <path id="Path_729" data-name="Path 729" d="M528.885,80.463,419.748,143.476a8.86,8.86,0,0,0-4.018,6.93V253.762L532.9,186.113V82.751C532.9,80.209,531.106,79.181,528.885,80.463Z" transform="translate(-407.081 -74.52)" fill="#f9dc97" opacity="0.64"/>
            <path id="Path_730" data-name="Path 730" d="M544.53,90.222,435.388,153.23a8.86,8.86,0,0,0-4.018,6.93V263.516l117.178-67.65V92.51C548.548,89.963,546.746,88.94,544.53,90.222Z" transform="translate(-414.078 -78.885)" fill="#f9d47a" opacity="0.64"/>
          </g>
          <g id="Group_259" data-name="Group 259" transform="translate(179.955 36.468)">
            <g id="Group_257" data-name="Group 257">
              <path id="Path_731" data-name="Path 731" d="M560.182,208.658,443.01,276.308V180.33l117.172-67.65Z" transform="translate(-443.01 -102.462)" fill="#c6c7cb"/>
              <path id="Path_732" data-name="Path 732" d="M444.47,276.049V181.911L560.034,115.19v94.132Z" transform="translate(-443.663 -103.585)" fill="#fffaee"/>
              <path id="Path_733" data-name="Path 733" d="M556.165,94.743,447.028,157.756a8.86,8.86,0,0,0-4.018,6.93v7.378l117.172-67.65V97.037C560.182,94.489,558.386,93.461,556.165,94.743Z" transform="translate(-443.01 -94.191)" fill="#c6c7cb"/>
              <path id="Path_734" data-name="Path 734" d="M627.4,114.711a4.48,4.48,0,0,1-2.045,3.52c-1.127.652-2.039.133-2.039-1.166a4.489,4.489,0,0,1,2.039-3.52C626.487,112.9,627.4,113.418,627.4,114.711Z" transform="translate(-523.672 -102.725)" fill="#989aa1"/>
              <path id="Path_735" data-name="Path 735" d="M611.844,123.7a4.489,4.489,0,0,1-2.045,3.52c-1.127.652-2.039.133-2.039-1.166a4.5,4.5,0,0,1,2.039-3.52C610.932,121.88,611.844,122.4,611.844,123.7Z" transform="translate(-516.711 -106.744)" fill="#989aa1"/>
              <path id="Path_736" data-name="Path 736" d="M642.95,105.731a4.48,4.48,0,0,1-2.045,3.52c-1.127.652-2.045.133-2.045-1.166a4.48,4.48,0,0,1,2.045-3.52C642.038,103.918,642.95,104.438,642.95,105.731Z" transform="translate(-530.624 -98.708)" fill="#989aa1"/>
            </g>
            <path id="Path_737" data-name="Path 737" d="M549.748,225.586c-1.719-1.509-1.835-4.935-.287-8.472l3.913-8.958-5.327-6.676-6.925,5.184a8.791,8.791,0,0,1-.934.619c-2.393,1.382-4.62,1.094-5.692-.823l-2.288-4.084-11.241,6.488-2.094,7.323a14.109,14.109,0,0,1-5.891,8.03c-.144.083-.293.166-.442.238l-6.985,3.476L500.9,240.817l4.349,3.813c1.719,1.509,1.835,4.935.287,8.472l-3.437,8.66,5.322,6.676,6.455-4.885a8.736,8.736,0,0,1,.928-.619c2.393-1.382,4.62-1.105,5.7.818l2.879,5.145,10.169-5.869,2.575-9a14.146,14.146,0,0,1,5.891-8.03c.144-.083.293-.166.448-.238l6.98-3.476,4.653-12.882Zm-12.031,6.659c-1.227,6.206-5.515,12.33-10.218,15.043a11.635,11.635,0,0,1-2.642,1.138c-5.648,1.586-9.047-3.1-7.588-10.456,1.227-6.206,5.515-12.335,10.219-15.049a11.634,11.634,0,0,1,2.642-1.138C535.778,220.209,539.176,224.89,537.717,232.246Z" transform="translate(-468.907 -142.187)" fill="#d5d6d9"/>
            <g id="Group_258" data-name="Group 258" transform="translate(45.709 76.432)">
              <path id="Path_738" data-name="Path 738" d="M538.558,234.26c-7.118,4.106-12.866,14.065-12.838,22.239s5.808,11.473,12.926,7.367,12.866-14.07,12.838-22.239S545.665,230.154,538.558,234.26Z" transform="translate(-525.72 -232.493)" fill="#a89cb2"/>
            </g>
          </g>
          <path id="Path_739" data-name="Path 739" d="M312.893,634.985l27.527-15.894c1.509-.873,1.321-2.4-.426-3.4l-4-2.31a6.557,6.557,0,0,0-5.9-.243l-27.527,15.894c-1.509.873-1.321,2.4.426,3.4l4,2.31A6.558,6.558,0,0,0,312.893,634.985Z" transform="translate(-199.776 -289.609)" fill="#c7c7c7"/>
          <g id="Group_267" data-name="Group 267" transform="translate(105.005 164.571)">
            <g id="Group_266" data-name="Group 266">
              <g id="Group_260" data-name="Group 260" transform="translate(0 1.078)">
                <path id="Path_740" data-name="Path 740" d="M338.731,492.076l-3.891-1.3L307.39,327.94l3.885,1.3Z" transform="translate(-307.39 -327.94)" fill="#b3b5b5"/>
              </g>
              <g id="Group_261" data-name="Group 261">
                <path id="Path_741" data-name="Path 741" d="M311.275,328.372l-3.885-1.3,1.862-1.078,3.891,1.3Z" transform="translate(-307.39 -325.99)" fill="#a0a0a0"/>
              </g>
              <g id="Group_265" data-name="Group 265" transform="translate(3.885 1.304)">
                <g id="Group_264" data-name="Group 264">
                  <path id="Path_742" data-name="Path 742" d="M341.876,492.26,314.42,329.428l1.868-1.078,27.45,162.832Z" transform="translate(-314.42 -328.35)" fill="#d8d9d9"/>
                </g>
              </g>
            </g>
          </g>
          <g id="Group_279" data-name="Group 279" transform="translate(84.523 173.025)">
            <g id="Group_269" data-name="Group 269" transform="translate(23.526 138.608)">
              <path id="Path_744" data-name="Path 744" d="M336.886,592.269a.955.955,0,0,0-.951-.083L313.62,605.151a.941.941,0,0,1,.951.083,3.005,3.005,0,0,1,1.387,2.349.973.973,0,0,1-.4.906l22.316-12.965a.961.961,0,0,0,.4-.906A3.02,3.02,0,0,0,336.886,592.269Z" transform="translate(-313.222 -592.094)" fill="#d8d9d9"/>
              <g id="Group_268" data-name="Group 268" transform="translate(0 12.971)">
                <path id="Path_745" data-name="Path 745" d="M315.635,618.088c.011.879-.591,1.243-1.348.823a3.005,3.005,0,0,1-1.387-2.349c-.011-.879.591-1.243,1.348-.823A3,3,0,0,1,315.635,618.088Z" transform="translate(-312.9 -615.565)" fill="#fdffff"/>
              </g>
            </g>
            <g id="Group_270" data-name="Group 270" transform="translate(20.912 123.206)">
              <path id="Path_746" data-name="Path 746" d="M332.156,564.4a.955.955,0,0,0-.951-.083L308.89,577.281a.941.941,0,0,1,.951.083,3.005,3.005,0,0,1,1.387,2.349.972.972,0,0,1-.4.906l22.316-12.965a.961.961,0,0,0,.4-.906A3.02,3.02,0,0,0,332.156,564.4Z" transform="translate(-308.492 -564.224)" fill="#d8d9d9"/>
              <path id="Path_747" data-name="Path 747" d="M310.905,590.218c.011.879-.591,1.243-1.348.823a3.005,3.005,0,0,1-1.387-2.349c-.011-.879.591-1.244,1.348-.823A3,3,0,0,1,310.905,590.218Z" transform="translate(-308.17 -574.724)" fill="#fdffff"/>
            </g>
            <g id="Group_271" data-name="Group 271" transform="translate(18.298 107.803)">
              <path id="Path_748" data-name="Path 748" d="M327.426,536.529a.955.955,0,0,0-.951-.083L304.16,549.411a.941.941,0,0,1,.951.083,3.005,3.005,0,0,1,1.387,2.349.972.972,0,0,1-.4.906l22.316-12.965a.961.961,0,0,0,.4-.906A3.029,3.029,0,0,0,327.426,536.529Z" transform="translate(-303.762 -536.354)" fill="#d8d9d9"/>
              <path id="Path_749" data-name="Path 749" d="M306.175,562.348c.011.879-.591,1.243-1.348.823a3.005,3.005,0,0,1-1.387-2.349c-.011-.879.591-1.243,1.348-.823A3.005,3.005,0,0,1,306.175,562.348Z" transform="translate(-303.44 -546.854)" fill="#fdffff"/>
            </g>
            <g id="Group_272" data-name="Group 272" transform="translate(15.684 92.406)">
              <path id="Path_750" data-name="Path 750" d="M322.7,508.669a.955.955,0,0,0-.951-.083L299.43,521.551a.941.941,0,0,1,.951.083,3.005,3.005,0,0,1,1.387,2.349.973.973,0,0,1-.4.906l22.316-12.965a.961.961,0,0,0,.4-.906A3.011,3.011,0,0,0,322.7,508.669Z" transform="translate(-299.032 -508.494)" fill="#d8d9d9"/>
              <path id="Path_751" data-name="Path 751" d="M301.445,534.478c.011.879-.591,1.243-1.348.823a3.005,3.005,0,0,1-1.387-2.349c-.011-.879.591-1.244,1.348-.823A3.005,3.005,0,0,1,301.445,534.478Z" transform="translate(-298.71 -518.989)" fill="#fdffff"/>
            </g>
            <g id="Group_273" data-name="Group 273" transform="translate(13.07 77.004)">
              <path id="Path_752" data-name="Path 752" d="M317.966,480.8a.955.955,0,0,0-.951-.083L294.7,493.681a.941.941,0,0,1,.951.083,3.005,3.005,0,0,1,1.387,2.349.972.972,0,0,1-.4.906l22.316-12.965a.961.961,0,0,0,.4-.906A3.02,3.02,0,0,0,317.966,480.8Z" transform="translate(-294.302 -480.624)" fill="#d8d9d9"/>
              <path id="Path_753" data-name="Path 753" d="M296.715,506.618c.011.879-.591,1.243-1.348.823a3.005,3.005,0,0,1-1.387-2.349c-.011-.879.591-1.243,1.348-.823A3,3,0,0,1,296.715,506.618Z" transform="translate(-293.98 -491.124)" fill="#fdffff"/>
            </g>
            <g id="Group_274" data-name="Group 274" transform="translate(10.456 61.602)">
              <path id="Path_754" data-name="Path 754" d="M313.236,452.929a.955.955,0,0,0-.951-.083L289.97,465.811a.941.941,0,0,1,.951.083,3.005,3.005,0,0,1,1.387,2.349.973.973,0,0,1-.4.906l22.316-12.965a.961.961,0,0,0,.4-.906A3.029,3.029,0,0,0,313.236,452.929Z" transform="translate(-289.572 -452.754)" fill="#d8d9d9"/>
              <path id="Path_755" data-name="Path 755" d="M291.985,478.748c.011.879-.591,1.243-1.348.823a3.005,3.005,0,0,1-1.387-2.349c-.011-.879.591-1.243,1.348-.823A3,3,0,0,1,291.985,478.748Z" transform="translate(-289.25 -463.254)" fill="#fdffff"/>
            </g>
            <g id="Group_275" data-name="Group 275" transform="translate(7.842 46.205)">
              <path id="Path_756" data-name="Path 756" d="M308.5,425.069a.955.955,0,0,0-.951-.083L285.23,437.951a.941.941,0,0,1,.951.083,3.006,3.006,0,0,1,1.387,2.349.972.972,0,0,1-.4.906l22.316-12.965a.961.961,0,0,0,.4-.906A2.982,2.982,0,0,0,308.5,425.069Z" transform="translate(-284.837 -424.894)" fill="#d8d9d9"/>
              <path id="Path_757" data-name="Path 757" d="M287.255,450.878c.011.879-.591,1.243-1.348.823a3.005,3.005,0,0,1-1.387-2.349c-.011-.879.591-1.243,1.348-.823A3.005,3.005,0,0,1,287.255,450.878Z" transform="translate(-284.52 -435.389)" fill="#fdffff"/>
            </g>
            <g id="Group_276" data-name="Group 276" transform="translate(5.228 30.805)">
              <path id="Path_758" data-name="Path 758" d="M303.766,397.2a.969.969,0,0,0-.951-.083L280.5,410.082a.941.941,0,0,1,.951.083,3.005,3.005,0,0,1,1.387,2.349.973.973,0,0,1-.4.906l22.316-12.965a.961.961,0,0,0,.4-.906A2.982,2.982,0,0,0,303.766,397.2Z" transform="translate(-280.107 -397.028)" fill="#d8d9d9"/>
              <path id="Path_759" data-name="Path 759" d="M282.525,423.018c.011.879-.591,1.243-1.348.823a3.005,3.005,0,0,1-1.387-2.349c-.011-.879.591-1.243,1.348-.823A3,3,0,0,1,282.525,423.018Z" transform="translate(-279.79 -407.526)" fill="#fdffff"/>
            </g>
            <g id="Group_277" data-name="Group 277" transform="translate(2.614 15.402)">
              <path id="Path_760" data-name="Path 760" d="M299.036,369.33a.969.969,0,0,0-.951-.083L275.77,382.212a.941.941,0,0,1,.951.083,3.005,3.005,0,0,1,1.387,2.349.973.973,0,0,1-.4.906l22.316-12.965a.961.961,0,0,0,.4-.906A2.991,2.991,0,0,0,299.036,369.33Z" transform="translate(-275.377 -369.158)" fill="#d8d9d9"/>
              <path id="Path_761" data-name="Path 761" d="M277.8,395.148c.011.879-.591,1.243-1.348.823a3.005,3.005,0,0,1-1.387-2.349c-.011-.879.591-1.243,1.348-.823A3,3,0,0,1,277.8,395.148Z" transform="translate(-275.06 -379.656)" fill="#fdffff"/>
            </g>
            <g id="Group_278" data-name="Group 278">
              <path id="Path_762" data-name="Path 762" d="M294.306,341.46a.969.969,0,0,0-.951-.083L271.04,354.342a.941.941,0,0,1,.951.083,3.005,3.005,0,0,1,1.387,2.349.973.973,0,0,1-.4.906L295.3,344.715a.961.961,0,0,0,.4-.906A3,3,0,0,0,294.306,341.46Z" transform="translate(-270.647 -341.288)" fill="#d8d9d9"/>
              <path id="Path_763" data-name="Path 763" d="M273.065,367.278c.011.879-.591,1.243-1.348.823a3.005,3.005,0,0,1-1.387-2.349c-.011-.879.591-1.243,1.348-.823A3,3,0,0,1,273.065,367.278Z" transform="translate(-270.33 -351.786)" fill="#fdffff"/>
            </g>
          </g>
          <g id="Group_287" data-name="Group 287" transform="translate(83.081 177.221)">
            <g id="Group_286" data-name="Group 286">
              <g id="Group_280" data-name="Group 280" transform="translate(0 1.083)">
                <path id="Path_764" data-name="Path 764" d="M299.061,514.987l-3.885-1.3L267.72,350.84l3.885,1.3Z" transform="translate(-267.72 -350.84)" fill="#b3b5b5"/>
              </g>
              <g id="Group_281" data-name="Group 281">
                <path id="Path_765" data-name="Path 765" d="M271.605,351.267l-3.885-1.3,1.873-1.083,3.885,1.3Z" transform="translate(-267.72 -348.88)" fill="#a0a0a0"/>
              </g>
              <g id="Group_285" data-name="Group 285" transform="translate(3.885 1.304)">
                <g id="Group_284" data-name="Group 284">
                  <path id="Path_766" data-name="Path 766" d="M302.206,515.166,274.75,352.323l1.873-1.083,27.456,162.843Z" transform="translate(-274.75 -351.24)" fill="#d8d9d9"/>
                </g>
              </g>
            </g>
          </g>
          <g id="Group_295" data-name="Group 295" transform="translate(73.106 98.451)">
            <path id="Path_768" data-name="Path 768" d="M301.1,257.689a17.513,17.513,0,0,0,.823,5.455c.387,1.476.785,2.957,1.183,4.432a2.11,2.11,0,0,0,.315.752,1.849,1.849,0,0,0,.757.514,6.959,6.959,0,0,0,3.067.558.547.547,0,0,0,.326-.088c.155-.122.144-.354.122-.547a48.825,48.825,0,0,0-4-14.17c-.238-.525-1.813-3.283-2.1-1.614-.122.73-.044,1.525-.16,2.271C301.307,256.07,301.146,256.871,301.1,257.689Z" transform="translate(-272.668 -226.973)" fill="url(#linear-gradient)"/>
            <path id="Path_769" data-name="Path 769" d="M298.791,247.743s-5.537-2.548-6.145-3.36a6.518,6.518,0,0,1-.558-1.288c-.685-1.973-1.575-5.355-1.575-5.355l-.718-2.725s-.812-3-.956-3.708-1.608-5.775-1.951-6.842c-.315-.978-2.349-5.289-2.675-5.969a.44.44,0,0,1-.044-.094,4.993,4.993,0,0,1-1.266-.873c-.3-.392-.917-1.172-1.1-1.5s-.757-1.409-.834-1.669a12.679,12.679,0,0,0-1.017-1.376c-.111-.182-.21-.647.2-.8s1.271.647,1.415.774.94,1.57.94,1.57l.232.149.083.055-.066-1.686-.354-2.271s-.055-1.735,0-2.653c-.005-.006,0-.006,0-.006a3.074,3.074,0,0,1,.044-.448.559.559,0,0,1,.652-.431v-.591a.389.389,0,0,1,.453-.3.334.334,0,0,1,.166.061.963.963,0,0,1,.282.6,1.819,1.819,0,0,1,.028.2.629.629,0,0,1,.321-.293c.193-.05.337.315.459.707.088.265.37,1.277.553,1.885-.006.006,0,.006,0,.006.077.282.127.475.127.475a10.24,10.24,0,0,1-.066-1.431.372.372,0,0,1,.171-.21.339.339,0,0,1,.464.028,29.578,29.578,0,0,1,.685,2.9l.42,2.205s.326,3.277.442,3.8a66.33,66.33,0,0,0,4.012,7.859c1.1,1.608,2.3,6.007,2.537,7.1s3.719,10.716,4.09,11.838A12,12,0,0,1,298.791,247.743Z" transform="translate(-263.173 -206.349)" fill="url(#linear-gradient-2)"/>
            <path id="Path_770" data-name="Path 770" d="M292.182,227.124a1.017,1.017,0,0,0-.508-.409.762.762,0,0,0-.492.061,1.591,1.591,0,0,0-.812,1.5,4.578,4.578,0,0,0,.5,1.724c1.072,2.454,2.194,4.9,3.084,7.422a22.529,22.529,0,0,0,.879,2.294c.254.531.558,1.039.857,1.542.564.94,1.249,1.967,2.321,2.189a.573.573,0,0,0,.459-.055.651.651,0,0,0,.16-.575,26.409,26.409,0,0,0-1.061-4.421c-.586-2.608-2.216-5.134-3.454-7.483A23.69,23.69,0,0,0,292.182,227.124Z" transform="translate(-267.877 -215.451)" fill="url(#linear-gradient-3)"/>
            <path id="Path_771" data-name="Path 771" d="M307.016,274.669a3.907,3.907,0,0,1,2.819,2.216,22,22,0,0,1,.52,5.471c-.05.63-.613,3.88-.658,3.946s-5.5-2.083-5.5-2.083l-.4-3.769.221-4.382A2.9,2.9,0,0,1,307.016,274.669Z" transform="translate(-273.885 -236.878)" fill="#f5c348"/>
            <path id="Path_772" data-name="Path 772" d="M285.047,215.269c.028.464.127.884.155,1.348a1.9,1.9,0,0,1-.414-.5l.083.055-.066-1.686-.354-2.271s-.055-1.735,0-2.653a3.442,3.442,0,0,1,.116.823,12.1,12.1,0,0,0,.083,1.614C284.8,213.086,284.97,214.169,285.047,215.269Z" transform="translate(-265.218 -207.785)" fill="#ffdfd1"/>
            <path id="Path_773" data-name="Path 773" d="M286.85,213.168c-.26-1.332-.547-2.714-.7-4.062a8.38,8.38,0,0,0-.216-1.122,4.8,4.8,0,0,0-.182-.707v-.387c.072.309.238.636.32.9a19.264,19.264,0,0,1,.321,1.984c.138.663.16,1.354.3,2.017A6.455,6.455,0,0,1,286.85,213.168Z" transform="translate(-265.81 -206.591)" fill="#ffdfd1"/>
            <path id="Path_774" data-name="Path 774" d="M287.318,208.892c-.116-.812-.3-1.625-.448-2.432a.963.963,0,0,1,.282.6c.022.282.072.569.094.7a16.116,16.116,0,0,0,.381,1.918c.105.392.243.746.332,1.144a6.349,6.349,0,0,0,.431,1.293.852.852,0,0,1-.243-.442c-.149-.47-.293-.939-.431-1.42A10.1,10.1,0,0,1,287.318,208.892Z" transform="translate(-266.311 -206.399)" fill="#ffdfd1"/>
            <path id="Path_775" data-name="Path 775" d="M290.144,212.225a8.074,8.074,0,0,1-.3-1.067v-.017c.077.276.127.47.127.47a10.241,10.241,0,0,1-.066-1.431.372.372,0,0,1,.171-.21c-.022.116-.033.227-.05.343a3.684,3.684,0,0,0,.282,1.636c.3.763.271,1.614.525,2.387C290.608,213.64,290.371,212.932,290.144,212.225Z" transform="translate(-267.64 -207.969)" fill="#ffdfd1"/>
            <path id="Path_776" data-name="Path 776" d="M295.615,252.928c-.685-1.973-1.575-5.355-1.575-5.355l-.718-2.725s-.812-3-.956-3.708-1.608-5.775-1.951-6.842c-.315-.978-2.349-5.289-2.675-5.969a1.644,1.644,0,0,1,.249.348,46.023,46.023,0,0,1,4.167,10.152,30.136,30.136,0,0,0,1.243,3.935.925.925,0,0,0,.227.354c.221.2.553.166.834.243s.553.437.343.647a2.2,2.2,0,0,0-.492,1.791c.066.636.271,1.255.321,1.9v.011C294.963,249.441,295.295,251.188,295.615,252.928Z" transform="translate(-266.701 -216.182)" fill="#ffdfd1"/>
            <path id="Path_777" data-name="Path 777" d="M321.789,444.55c-.619-.293-4.747,1.216-4.979,2.023a11.479,11.479,0,0,0,.348,3.321,18.7,18.7,0,0,1-.984,1.934,3.954,3.954,0,0,0-.691,2.653c.238.8.3.995,1.105,1.111a2.936,2.936,0,0,0,2.476-.884c.846-.768,1.227-3.548,1.227-3.548l3.764-3.106a.906.906,0,0,0-.022-1C323.668,446.617,321.789,444.55,321.789,444.55Z" transform="translate(-279.086 -312.892)" fill="#f1f3f3"/>
            <path id="Path_778" data-name="Path 778" d="M316,435.6c.133.884.978,6.306,1.238,6.8s1.951.32,2.741-.227a18.764,18.764,0,0,0,1.907-1.652l-.763-5.394Z" transform="translate(-279.343 -308.69)" fill="url(#linear-gradient-4)"/>
            <path id="Path_779" data-name="Path 779" d="M311.425,431.7c-1.072.149-3.9.586-4.305,1.039s-.188,1.448-.188,1.448a8.2,8.2,0,0,0,1.774,1.072,14.913,14.913,0,0,0,4-.088c.8-.072,4.145-.05,4.145-.05l.89-1.868-2.188-2.282Z" transform="translate(-275.259 -306.834)" fill="#f1f3f3"/>
            <path id="Path_780" data-name="Path 780" d="M306.43,385.437a5.431,5.431,0,0,0,3.029-.481s-.287-9.235-.8-11.595-3.272-14.606-3.2-15.071.718-10.843,1.022-12.225,1.127-3.647-.354-8.522-3.25-7.837-5.753-9.948-10.76-2.885-9.765,6.455,7.919,33.535,9.649,37.077S306.43,385.437,306.43,385.437Z" transform="translate(-267.949 -259.985)" fill="#424c67"/>
            <path id="Path_781" data-name="Path 781" d="M307.486,360.838a13.422,13.422,0,0,0-.536,2.819,7.562,7.562,0,0,0,.282,1.641q1.152,4.651,2.006,9.362a8.8,8.8,0,0,1,.193,2.714.83.83,0,0,1-.591-.387c-3.719-4.576-5.1-10.638-5.388-16.53a7.719,7.719,0,0,1,.122-2.2,2.821,2.821,0,0,1,1.21-1.78,1.9,1.9,0,0,1,1.188-.249c.315.039.768.376.951.006A7.091,7.091,0,0,1,307.486,360.838Z" transform="translate(-273.719 -273.392)" fill="#deddf5"/>
            <path id="Path_782" data-name="Path 782" d="M313.522,369.02c-.149,2.288-.077,4.587-.006,6.886a2.367,2.367,0,0,1-2.034-1.166,8.238,8.238,0,0,1-1.1-3.985,34.9,34.9,0,0,1-.133-6.173,39.385,39.385,0,0,1,.6-3.951c.1-.553.1-1.144.7-1.337a2.658,2.658,0,0,1,1.249.044c2.039.519,1.271,3.808,1.133,5.3C313.8,366.1,313.616,367.555,313.522,369.02Z" transform="translate(-276.732 -274.743)" fill="#454f6b"/>
            <path id="Path_783" data-name="Path 783" d="M307.218,340.953a1.09,1.09,0,0,0-.337.442,1.039,1.039,0,0,0,.028.519c.746,3.122,2.642,5.913,3.139,9.091a3.417,3.417,0,0,0,.249.995.931.931,0,0,0,.8.553,1.127,1.127,0,0,0,.624-.265,4.338,4.338,0,0,0,1.6-2.222,7.629,7.629,0,0,0,.265-2.067,23.26,23.26,0,0,0-.8-7.118,15.058,15.058,0,0,0-1.393-3.316c-.2-.359-.481-1.083-.989-1.028s-.647.807-.823,1.172A11.223,11.223,0,0,1,307.218,340.953Z" transform="translate(-275.253 -264.588)" fill="#454f6b"/>
            <path id="Path_784" data-name="Path 784" d="M281.675,329.94a34.045,34.045,0,0,0-.4,10.329c.459,3.9,2.006,7.295,3.172,11.014s6.378,13.838,8.351,19.155c.741,2,6.936,20.6,7.207,21.343s2.349.741,3.968.58,3.134-1.232,3.078-2.023-4.692-18.735-5.278-20.807-1.956-5.7-1.956-5.7-4.139-12.352-4.294-13.6,1.84-3.327,2.133-5.289.028-4.493-1.73-8.743-4-5.864-4-5.864Z" transform="translate(-263.714 -261.638)" fill="#424c67"/>
            <path id="Path_785" data-name="Path 785" d="M303.871,391.625a1.311,1.311,0,0,1-.746-.138c-.265-.094-1.183-.238-1.337-.437-.077-.1-.16-.2-.238-.3a39.951,39.951,0,0,0,2.316,8.737c2.106,5.1,4.985,9.881,6.632,15.143a1.973,1.973,0,0,0,.5.951,1.862,1.862,0,0,0,1.26.293c.7-.017,1.393,2.056,2.089,2a1.187,1.187,0,0,0,.89-.348,9.774,9.774,0,0,0-.022-3.233,97.236,97.236,0,0,1-2.636-10.031c-.381-1.641-.718-3.316-1.216-4.913a83.99,83.99,0,0,0-3.078-8.091,1.042,1.042,0,0,0-.414-.558.9.9,0,0,0-.42-.072,8.7,8.7,0,0,0-3.172.868A2.3,2.3,0,0,1,303.871,391.625Z" transform="translate(-272.879 -288.787)" fill="#454f6b"/>
            <path id="Path_786" data-name="Path 786" d="M300.868,371a45.37,45.37,0,0,0-1.282-5.836,3.607,3.607,0,0,1-2.769.928c-1.006-.033-1.99-.276-3-.315a2.789,2.789,0,0,0-1.73.387,2.24,2.24,0,0,0-.857,1.713,5.212,5.212,0,0,0,.348,1.94,33.26,33.26,0,0,0,1.6,3.741q2.2,4.592,4.394,9.19a4.964,4.964,0,0,0,1.741,2.316,3.178,3.178,0,0,0,3.062-.1,3.713,3.713,0,0,0,1.459-4.432,40.233,40.233,0,0,1-2.111-5.841Q301.225,372.864,300.868,371Z" transform="translate(-268.262 -277.393)" fill="#454f6b"/>
            <path id="Path_787" data-name="Path 787" d="M297.188,350.345a16.7,16.7,0,0,0-1.365-8.008,1.37,1.37,0,0,0-.453-.624,1.251,1.251,0,0,0-.669-.144,13.382,13.382,0,0,0-2.99.376c-2.266.459-4.521.956-6.775,1.453a.7.7,0,0,0-.343.144.678.678,0,0,0-.16.321c-.569,2.1.006,4.333.713,6.394A53.231,53.231,0,0,0,288.7,358.4a3.5,3.5,0,0,0,1.675,1.813,3.563,3.563,0,0,0,2.515-.381,4.648,4.648,0,0,0,3.04-3.443A35.124,35.124,0,0,0,297.188,350.345Z" transform="translate(-265.118 -266.839)" fill="#454f6b"/>
            <path id="Path_788" data-name="Path 788" d="M281.12,333.2a35.726,35.726,0,0,0,8.2-.177c7.151-.779,8.334-4.056,8.334-4.056l-.862-2.912-15.5,4.742Z" transform="translate(-263.739 -259.897)" fill="#323142"/>
            <g id="Group_288" data-name="Group 288" transform="translate(18.601 70.69)">
              <path id="Path_789" data-name="Path 789" d="M284.307,338.637a.964.964,0,0,1-.525-.58,7.916,7.916,0,0,1-.37-3.8l1.315.193a6.519,6.519,0,0,0,.309,3.156.439.439,0,0,0-.232-.21l-.21.52.343.691Z" transform="translate(-283.327 -334.26)" fill="#424c67"/>
            </g>
            <g id="Group_289" data-name="Group 289" transform="translate(29.489 68.993)">
              <path id="Path_790" data-name="Path 790" d="M304.876,334.76l-1.332-.033a8.306,8.306,0,0,0-.514-3.067l1.249-.47A9.717,9.717,0,0,1,304.876,334.76Z" transform="translate(-303.03 -331.19)" fill="#424c67"/>
            </g>
            <path id="Path_791" data-name="Path 791" d="M297.421,299.075c-.851,3.139-2.338,13.253-2.338,13.253s-.315,1.022-2.979,1.9-6.389,1.553-12.578,1.277h-.066c-.055-.868-1.3-7.168-1.3-7.168a7.347,7.347,0,0,1-1.078-2.8,11.111,11.111,0,0,1-.072-1.144,16.139,16.139,0,0,1,.448-4.394,45.759,45.759,0,0,1,2.371-4.8s3.128-1.8,3.786-2.128l5.549-1.2a6.741,6.741,0,0,1,2.647-.774,13.3,13.3,0,0,1,4.554.9C297.924,292.532,298.267,295.936,297.421,299.075Z" transform="translate(-261.897 -244.257)" fill="#f9d47a"/>
            <path id="Path_792" data-name="Path 792" d="M268.875,264.039c-1.243,2.05-4.93,1.873-4.93,1.873s-.7-.962-1.415-2c-.591-.851-1.188-1.741-1.426-2.189-.105-.2-.3-.647-.558-1.249-.547-1.288-1.337-3.272-2.017-4.968-.591-1.509-1.094-2.785-1.238-3.156-.381-.989-.746-2.426-.951-2.807-.044-.094-.227-.619-.486-1.4-.249-.768-.58-1.791-.917-2.885a.318.318,0,0,1-.022-.077c-.763-2.481-1.592-5.311-1.807-6.472-.409-2.211-1-5.223-1.067-5.471s-.746-1.194-.9-1.5a8.115,8.115,0,0,1-.9-2.31c-.039-.685-.508-2.155-.475-2.509s-.1-1.768-.1-1.768v-.116c0-.221.006-.7.044-1.161v-.017a2.381,2.381,0,0,1,.2-.945.249.249,0,0,1,.05-.055.513.513,0,0,1,.4-.1.266.266,0,0,1,.138.044s0-.028.006-.083a14.539,14.539,0,0,1,.2-1.945,1.137,1.137,0,0,1,.508-.365.06.06,0,0,1,.044,0c.028.017.017-.16.017-.37s.006-.459.088-.525c.16-.127.619-.116.713.171a2.825,2.825,0,0,1,.094.663l.088-.028c.044-.017.111-.033.171-.05.243-.055.569-.077.636.2.116.459,1.564,6.665,1.636,6.9a.218.218,0,0,0,.138.16.264.264,0,0,0,.149.017,6.574,6.574,0,0,1,.547-1.929c.3-.359.868-1.011,1.166-1a.175.175,0,0,1,.105.039c.155.144.077.58.077.58l-.42.68-.359,2.542-.84,1.708a9.421,9.421,0,0,0,.055,1.641c.111.354,4.93,12.1,5.156,13.076s1.934,6.621,2.376,7.61,3.929,5.714,4.3,6.378S270.118,261.994,268.875,264.039Z" transform="translate(-249.67 -212.205)" fill="url(#linear-gradient-5)"/>
            <g id="Group_290" data-name="Group 290" transform="translate(20.42 76.902)">
              <path id="Path_793" data-name="Path 793" d="M293.744,356.111l-5.372-1.072-.05-.21c-.647-2.752-1.636-6.93-1.7-7.146l.31-.094-.061-.337.022-.006h.006l9.069-1.746,1.5,7.765Zm-4.825-1.641,4.659.928,3.156-2.41-1.293-6.709-8.135,1.57C287.548,348.634,287.968,350.424,288.919,354.469Z" transform="translate(-286.62 -345.5)" fill="#4f5a7a"/>
            </g>
            <g id="Group_291" data-name="Group 291" transform="translate(17.513 71.353)">
              <path id="Path_794" data-name="Path 794" d="M300.609,394.687c-.039-.116-3.78-11.434-5.753-16.817-2.067-5.637-6.212-15-7.9-18.646a75.277,75.277,0,0,1-4.266-11.705,33.784,33.784,0,0,1-1.056-7.831c-.066-1.194-.144-2.548-.276-4.172l.663-.055c.133,1.636.21,3,.276,4.189a32.991,32.991,0,0,0,1.033,7.693,75.334,75.334,0,0,0,4.228,11.606c1.691,3.659,5.847,13.043,7.919,18.7,1.973,5.394,5.72,16.723,5.759,16.839Z" transform="translate(-281.36 -335.46)" fill="#4f5a7a"/>
            </g>
            <g id="Group_292" data-name="Group 292" transform="translate(17.348 70.436)">
              <path id="Path_795" data-name="Path 795" d="M281.668,339.371c-.4,0-.6-.006-.608-.006l.022-.663a69.76,69.76,0,0,0,8.268-.459c4.565-.47,5.565-.63,5.753-.663.354-.216,2.8-1.752,3.321-3.78l.647.166c-.636,2.454-3.554,4.145-3.681,4.217a55.744,55.744,0,0,1-5.969.724C285.426,339.315,282.79,339.371,281.668,339.371Z" transform="translate(-281.06 -333.8)" fill="#4f5a7a"/>
            </g>
            <g id="Group_293" data-name="Group 293" transform="translate(34.038 73.177)">
              <path id="Path_796" data-name="Path 796" d="M316.173,347.9l-1.824-.426-.061-.177a39.681,39.681,0,0,0-2.83-6.228l-.2-.359.392-.122a24.819,24.819,0,0,0,1.99-1.829l.47.475c-.9.884-1.536,1.481-1.918,1.78a41.226,41.226,0,0,1,2.675,5.9l1.459.337Z" transform="translate(-311.26 -338.76)" fill="#4f5a7a"/>
            </g>
            <g id="Group_294" data-name="Group 294" transform="translate(31.424 73.879)">
              <path id="Path_797" data-name="Path 797" d="M309.133,350.458l-.652-.122a15.937,15.937,0,0,0,.066-5.322,11.887,11.887,0,0,0-1.337-3.338c-.243-.47-.481-.934-.68-1.376l.608-.271c.193.431.426.884.669,1.343a12.368,12.368,0,0,1,1.4,3.537A16.7,16.7,0,0,1,309.133,350.458Z" transform="translate(-306.53 -340.03)" fill="#4f5a7a"/>
            </g>
            <path id="Path_798" data-name="Path 798" d="M279.54,326.2v.066h-.066c-.055-.868-1.3-7.168-1.3-7.168a7.348,7.348,0,0,1-1.078-2.8,11.1,11.1,0,0,1-.072-1.144c.111.282.227.569.343.851a29.714,29.714,0,0,1,2.177,10.2Z" transform="translate(-261.905 -255.021)" fill="#deddf5"/>
            <path id="Path_799" data-name="Path 799" d="M249.964,225.73a8.006,8.006,0,0,1-.2.945A2.381,2.381,0,0,1,249.964,225.73Z" transform="translate(-249.71 -215.019)" fill="#ffdfd1"/>
            <path id="Path_800" data-name="Path 800" d="M250.983,225.468a.193.193,0,0,0-.033-.05.266.266,0,0,1,.138.044s0-.028.005-.083c.083.652.166,1.3.254,1.956a14.331,14.331,0,0,1,.127,1.6,13.059,13.059,0,0,0-.254-1.558,12.139,12.139,0,0,1-.171-1.553A1.008,1.008,0,0,0,250.983,225.468Z" transform="translate(-250.243 -214.862)" fill="#ffdfd1"/>
            <path id="Path_801" data-name="Path 801" d="M252.678,221.005a.314.314,0,0,0-.188-.105.061.061,0,0,1,.044,0c.028.017.017-.16.017-.37.006.011.006.017.011.028a3.564,3.564,0,0,1,.155.525A.147.147,0,0,0,252.678,221.005Z" transform="translate(-250.932 -212.693)" fill="#ffdfd1"/>
            <path id="Path_802" data-name="Path 802" d="M252.953,221.651a.831.831,0,0,0-.033-.111A.641.641,0,0,1,252.953,221.651Z" transform="translate(-251.124 -213.145)" fill="#ffdfd1"/>
            <path id="Path_803" data-name="Path 803" d="M253,221.95c-.006-.072-.006-.138-.017-.21a12.617,12.617,0,0,1,.227,2.188,11.437,11.437,0,0,0,.155,1.431,6.653,6.653,0,0,1,.094,1.371A28.35,28.35,0,0,1,253,221.95Z" transform="translate(-251.151 -213.234)" fill="#ffdfd1"/>
            <path id="Path_804" data-name="Path 804" d="M254.54,222.033c-.077-.343-.116-.691-.16-1.033.044-.017.111-.033.171-.05.111.989.243,2,.381,2.984.122.917.249,1.829.37,2.741a12.9,12.9,0,0,1-.426-2.526A18.34,18.34,0,0,0,254.54,222.033Z" transform="translate(-251.777 -212.881)" fill="#ffdfd1"/>
            <path id="Path_805" data-name="Path 805" d="M253.4,243.607c.47,2.056.962,4.1,1.525,6.129-.763-2.481-1.592-5.311-1.807-6.472-.409-2.211-1-5.223-1.067-5.471s-.746-1.194-.9-1.5a8.113,8.113,0,0,1-.9-2.31c-.039-.685-.508-2.155-.475-2.509s-.1-1.768-.1-1.768v-.088a.122.122,0,0,1,.006.044c.061.829.155,1.658.293,2.476a15.882,15.882,0,0,0,.464,1.614c.188.641.381,1.288.6,1.923a2.113,2.113,0,0,0,.453.823c.26.282.608.492.7.884.077.332.149.663.2.995.044.354.066.707.111,1.067a11.919,11.919,0,0,0,.238,1.238Q253.07,242.151,253.4,243.607Z" transform="translate(-249.674 -216.759)" fill="#ffdfd1"/>
            <path id="Path_806" data-name="Path 806" d="M260.265,229.433a2.3,2.3,0,0,0-.669.945,7.973,7.973,0,0,0-.232,1.017c-.05.282-.105.575-.155.857a1.7,1.7,0,0,1-.149-.52.264.264,0,0,0,.149.017,6.574,6.574,0,0,1,.547-1.929c.3-.359.868-1.011,1.166-1a.174.174,0,0,1,.105.039C260.729,228.919,260.442,229.262,260.265,229.433Z" transform="translate(-253.871 -216.401)" fill="#ffdfd1"/>
            <path id="Path_807" data-name="Path 807" d="M263.124,277.521c.155.392.293.8.426,1.2-.591-1.5-1.089-2.774-1.232-3.145-.381-.989-.746-2.426-.951-2.807-.044-.094-.227-.619-.486-1.4a1.332,1.332,0,0,0,.083.182,16.488,16.488,0,0,1,1.155,2.642c.144.536.2,1.1.359,1.641A13.914,13.914,0,0,0,263.124,277.521Z" transform="translate(-254.685 -235.436)" fill="#ffdfd1"/>
            <path id="Path_808" data-name="Path 808" d="M271.334,297.137c-.591-.851-1.188-1.741-1.426-2.188-.1-.2-.3-.647-.558-1.249.044.083.094.16.138.243C270.091,295.01,270.693,296.087,271.334,297.137Z" transform="translate(-258.474 -245.426)" fill="#ffdfd1"/>
            <path id="Path_809" data-name="Path 809" d="M265.116,265.128a.78.78,0,0,0-.216.105c-.481.326-.564,1.619-.647,2.155-.332,2.161.409,4.333,1.172,6.383.691,1.862,1.409,3.719,2.128,5.576a10.432,10.432,0,0,0,1.006,2.111c.486.724,1.138,1.315,1.63,2.034.4.586.707,1.619,1.31,2.023.835.564.995-.536,1.232-1.116.182-.442.547-.785.746-1.216a3.527,3.527,0,0,0-.332-2.83c-.265-.6-.542-1.194-.823-1.791-.144-.3-.287-.613-.431-.917q-1.393-2.205-2.78-4.416a8.124,8.124,0,0,1-1.083-1.923q-.788-2.528-1.575-5.051a1.689,1.689,0,0,0-.669-1.072A.907.907,0,0,0,265.116,265.128Z" transform="translate(-256.158 -232.626)" fill="url(#linear-gradient-6)"/>
            <path id="Path_810" data-name="Path 810" d="M259.436,257.937a1.966,1.966,0,0,1-.774-1.127c-.3-.9-.6-1.785-.9-2.68-.42-1.255-.84-2.5-1.183-3.78-.315-1.166-.564-2.349-.818-3.526-.265-1.238-.525-2.47-.79-3.708a1.849,1.849,0,0,1-.011-1.094,1.309,1.309,0,0,1,1.973-.293A3.925,3.925,0,0,1,258,243.734c.249.752.63,1.453.906,2.211.707,1.918,1.426,3.83,2.067,5.764.691,2.072,1.409,4.228,1.934,6.372a4.948,4.948,0,0,1,.105,2.73c-.951-.171-1.238-1.006-1.9-1.509C260.541,258.855,259.988,258.413,259.436,257.937Z" transform="translate(-252.003 -222.037)" fill="url(#linear-gradient-7)"/>
            <path id="Path_811" data-name="Path 811" d="M290.6,264.72a8.657,8.657,0,0,0-3.808,2.89,5.108,5.108,0,0,0-.636,2.222,3.906,3.906,0,0,0-.834,2.658,5.047,5.047,0,0,0,1.017,3.741,4.758,4.758,0,0,0,1.365.636s.641,3.587.674,4.106,5.77.227,5.77.227l.63-.575a25.772,25.772,0,0,0,.4-4.692C295.106,273.734,290.6,264.72,290.6,264.72Z" transform="translate(-265.616 -232.461)" fill="url(#linear-gradient-8)"/>
            <path id="Path_812" data-name="Path 812" d="M288.653,266.562a5.5,5.5,0,0,0-.7,3.056,7.374,7.374,0,0,1-.3,2.172l-.287,1.962.68-.287a1.084,1.084,0,0,1,.928.5A20.336,20.336,0,0,1,290.1,276.1a19.186,19.186,0,0,0,1.448,2.57c.32.409,3.957,1.138,4.465,1.481s1.5-.868,1.5-.868,1.122-2.813,2.045-4.5a6.58,6.58,0,0,0-.547-6.875c-1.719-2.586-3.051-3.41-4.935-4.056a2.923,2.923,0,0,0-3.244.619C290.593,264.761,289.311,264.634,288.653,266.562Z" transform="translate(-266.531 -231.977)" fill="#b2686b"/>
            <path id="Path_813" data-name="Path 813" d="M288.989,283.759c.138-.1.276-.2.409-.31a1.017,1.017,0,0,0,.486-.752.944.944,0,0,0-.381-.619.359.359,0,0,0-.149-.094.313.313,0,0,0-.254.077,2.287,2.287,0,0,0-.5.608,3.825,3.825,0,0,0-.448.641C287.9,283.942,288.575,284.063,288.989,283.759Z" transform="translate(-266.861 -240.182)" fill="url(#linear-gradient-9)"/>
            <path id="Path_814" data-name="Path 814" d="M282.187,293.226c-.962-.868-3.25-2.841-3.758-3.134s-3.509,6.93-3.509,6.93l.243.967a23.932,23.932,0,0,0,1.663,2.515c.4.381,1.912-.459,3.089-2.26A27.767,27.767,0,0,0,282.187,293.226Z" transform="translate(-260.966 -243.808)" fill="#f5c348"/>
          </g>
          <g id="Group_307" data-name="Group 307" transform="translate(136.522 167.682)">
            <path id="Path_815" data-name="Path 815" d="M394.342,573.46a1.924,1.924,0,0,1,1.089.486,2.244,2.244,0,0,1,.348.8,2.039,2.039,0,0,1,.1.713,3.738,3.738,0,0,1-1.47,1.558c-1.083.691-1.785,1.061-1.785,1.061a21.956,21.956,0,0,1-2.117,2.371c-.862.752-2.4,2.321-4.283,2.216s-2.509-1.133-2.62-1.514a3.766,3.766,0,0,1,.122-1.735,5.8,5.8,0,0,1,1.7-2.277C386.152,576.516,394.342,573.46,394.342,573.46Z" transform="translate(-372.977 -439.808)" fill="#323142"/>
            <path id="Path_816" data-name="Path 816" d="M409.854,596.187a4.6,4.6,0,0,0-.392,2.338,3.644,3.644,0,0,0,.4,1.155,4.014,4.014,0,0,0,2.99.4c2.083-.354,2.852-.785,3.813-2.36a8.494,8.494,0,0,0,.829-4.1l.2-2.05-.039-1.442s-.011-1.26-.486-1.713-4.3,1.039-4.3,1.039l-.669,3.62Z" transform="translate(-384.559 -446.463)" fill="#323142"/>
            <path id="Path_817" data-name="Path 817" d="M390.413,570.618l-.519,1.492a55.836,55.836,0,0,0-4.83,3.951,4.278,4.278,0,0,0-.724,2c-.039.58,1.232,1.73,1.232,1.73a2.145,2.145,0,0,0,2.155-.116c1.293-.691,3.056-1.685,3.542-2.78a5.3,5.3,0,0,1,1.641-1.885s2.183-1.232,2.664-2.144-.315-2.946-.332-3.3S390.413,570.618,390.413,570.618Z" transform="translate(-373.331 -438.038)" fill="#f1f3f3"/>
            <path id="Path_818" data-name="Path 818" d="M417.373,585.69c-.039.459.321,1.614.3,2.194a25.07,25.07,0,0,1-.514,4.051c-.26.729-.122,3.3-1.868,4.421s-4.786.956-5.289.392a1.927,1.927,0,0,1-.216-1.57l1.84-7.494.188-3.255Z" transform="translate(-384.679 -444.715)" fill="#f1f3f3"/>
            <path id="Path_819" data-name="Path 819" d="M391.819,491.152c-1.243-1.437-7.925-3.421-8.577-1.2a32.238,32.238,0,0,0-1.365,6.46c-.133,1.951,2.752,14.231,3.238,16.3s3.4,22.189,3.719,22.747,2.509,1.3,3.846,1.2a2.783,2.783,0,0,0,2.271-1.8,19.775,19.775,0,0,0,.155-3.565s-1.874-13.269-1.708-13.645-1.083-10.556-.177-13.617S391.819,491.152,391.819,491.152Z" transform="translate(-372.227 -402.005)" fill="#424c67"/>
            <g id="Group_296" data-name="Group 296" transform="translate(19.558 101.433)">
              <path id="Path_820" data-name="Path 820" d="M401.6,547.722c-.05-.564-1.282-13.778-1.2-14.684.083-.967-.017-13.6-.591-17.812l.475-.066c.58,4.239.68,16.939.6,17.917-.061.691.757,9.854,1.2,14.6Z" transform="translate(-399.81 -515.16)" fill="#4f5a7a"/>
            </g>
            <path id="Path_821" data-name="Path 821" d="M396.926,513.789a6.465,6.465,0,0,1,.315.846,6.372,6.372,0,0,1,.133.79c.061.564.116,1.127.171,1.691.111,1.15.221,2.3.332,3.454.448,3.31.464,6.737.674,10.075.005-.193.017-.392.022-.586A118.332,118.332,0,0,0,400.5,546.92c.077.409.293.928.707.884.282-.028.453-.315.575-.569a46.562,46.562,0,0,0,3.714-28.975,18.252,18.252,0,0,0-2.2-6.322,8.157,8.157,0,0,0-5.278-3.857,2.448,2.448,0,0,0-1.31.055C394.908,508.815,396.456,512.65,396.926,513.789Z" transform="translate(-378.484 -410.532)" fill="#deddf5"/>
            <path id="Path_822" data-name="Path 822" d="M387.208,505.48a19.105,19.105,0,0,0,.812,3.537c.459,1.138,1.061,2.227,1.431,3.4a17.066,17.066,0,0,1,.486,2.244c.492,2.9,1.558,6.167,1.056,9.1a1.825,1.825,0,0,1-.138.508,3.4,3.4,0,0,1-2.581,1.442,2.372,2.372,0,0,1-1.586-1.315,7.385,7.385,0,0,1-.586-2.039c-1.315-6.836-3.642-13.474-4.515-20.382a.777.777,0,0,1,.033-.437c.149-.293.569-.276.89-.2a8.243,8.243,0,0,1,3.283,1.674,4.147,4.147,0,0,1,1.028,1.188A5.255,5.255,0,0,1,387.208,505.48Z" transform="translate(-372.094 -407.523)" fill="#454f6b"/>
            <path id="Path_823" data-name="Path 823" d="M389.414,535.7a1.15,1.15,0,0,1,.105-.785.953.953,0,0,1,.542-.332c2.133-.641,3.714,1.243,4.482,2.99a7.691,7.691,0,0,1,.481,1.934,122.982,122.982,0,0,1,1.4,15.4,2.87,2.87,0,0,1-.044.724,1.392,1.392,0,0,1-.879.967,2.8,2.8,0,0,1-1.813-.2,1.464,1.464,0,0,1-.647-.359,1.421,1.421,0,0,1-.249-.558A118.379,118.379,0,0,1,389.414,535.7Z" transform="translate(-375.593 -422.36)" fill="#454f6b"/>
            <path id="Path_824" data-name="Path 824" d="M407.8,490.211A69.991,69.991,0,0,1,408.98,500c.088,3.891-.282,9.693-.464,11.893s-.68,6.206-.729,7.019,1.459,10.058,1.52,11.1.829,4.836.906,7.035a27.623,27.623,0,0,1-.127,5.692,3.24,3.24,0,0,1-3.67,1.708c-2.227-.381-2.879-.735-2.973-1.442s-4.4-18.309-4.5-19.945-1.315-17.845-2.023-18.591-1.8-.238-2.9-1.735-1.116-3.752-1.21-5.024a28.678,28.678,0,0,1,.254-5.482c.221-.459,3.145-4.642,3.145-4.642Z" transform="translate(-377.109 -401.389)" fill="#424c67"/>
            <g id="Group_297" data-name="Group 297" transform="translate(29.683 91.043)">
              <path id="Path_825" data-name="Path 825" d="M421.48,547.043l-.475-.066c.26-1.824-.254-8.555-.365-9.8-.083-.917-.741-4.543-1.221-7.19-.182-.995-.332-1.835-.415-2.316-.094-.531-.216-1.166-.337-1.807a22.063,22.063,0,0,1-.531-3.476c.055-.663.636-4.7,1.056-7.317a82.87,82.87,0,0,0,.414-11.655,33.487,33.487,0,0,0-1.138-6.6l-.083-.337.464-.116.083.337a33.7,33.7,0,0,1,1.15,6.693,85.169,85.169,0,0,1-.42,11.755c-.409,2.553-.995,6.637-1.05,7.278a23.469,23.469,0,0,0,.525,3.344c.127.641.249,1.282.337,1.813.083.481.232,1.315.414,2.31.481,2.653,1.138,6.295,1.227,7.234C421.253,538.649,421.745,545.186,421.48,547.043Z" transform="translate(-418.132 -496.36)" fill="#4f5a7a"/>
            </g>
            <path id="Path_826" data-name="Path 826" d="M403.792,494.3c-.282.613-1.409,1.614-4.7,2.271s-7.643,1.5-10.169,1.089a9.67,9.67,0,0,1-5.25-2.841c-.912-.934-.525-.906-.829-1.293s.083-3.039.227-3.089.243.238.243.238a4.777,4.777,0,0,0,2.012,2.774c1.7,1.155,3.747,2.023,8.522,1.4s7.212-1.564,9.412-2.9A22.311,22.311,0,0,1,403.792,494.3Z" transform="translate(-372.611 -402.664)" fill="#323142"/>
            <g id="Group_298" data-name="Group 298" transform="translate(21.57 91.065)">
              <path id="Path_827" data-name="Path 827" d="M403.82,500.921l-.37-4.443.956-.077.37,4.443Z" transform="translate(-403.45 -496.4)" fill="#424c67"/>
            </g>
            <g id="Group_299" data-name="Group 299" transform="translate(12.012 90.165)">
              <path id="Path_828" data-name="Path 828" d="M386.3,499.119a14,14,0,0,1,.05-4.349l.945.16a13.1,13.1,0,0,0-.05,4.051Z" transform="translate(-386.156 -494.77)" fill="#424c67"/>
            </g>
            <g id="Group_300" data-name="Group 300" transform="translate(9.5 93.514)">
              <path id="Path_829" data-name="Path 829" d="M382.809,502.565a2.017,2.017,0,0,1-1.2-.481l.287-.381a1.271,1.271,0,0,0,1.166.337c.636-.216.906-1.2.912-1.21l.464.127c-.011.05-.337,1.238-1.216,1.536A1.167,1.167,0,0,1,382.809,502.565Z" transform="translate(-381.61 -500.83)" fill="#4f5a7a"/>
            </g>
            <g id="Group_301" data-name="Group 301" transform="translate(23.208 94.453)">
              <path id="Path_830" data-name="Path 830" d="M409.954,505.973a6.02,6.02,0,0,1-1.592-.2c-2.244-.613-1.934-3.211-1.934-3.239l.475.061c-.011.088-.254,2.211,1.581,2.714a7.076,7.076,0,0,0,5.714-1.221l.293.381A7.794,7.794,0,0,1,409.954,505.973Z" transform="translate(-406.414 -502.53)" fill="#4f5a7a"/>
            </g>
            <g id="Group_302" data-name="Group 302" transform="translate(16.666 93.989)">
              <path id="Path_831" data-name="Path 831" d="M396.027,510.273c-1.553-1.94-1.536-7.986-1.382-8.583l.464.122c-.144.553-.138,6.378,1.293,8.163Z" transform="translate(-394.577 -501.69)" fill="#4f5a7a"/>
            </g>
            <g id="Group_303" data-name="Group 303" transform="translate(14.96 93.884)">
              <path id="Path_832" data-name="Path 832" d="M394.27,509.287a2.617,2.617,0,0,1-1.559-1.033,6.879,6.879,0,0,1-1.039-2.951,17.26,17.26,0,0,1-.138-3.8l.475.028a16.637,16.637,0,0,0,.133,3.7,6.7,6.7,0,0,0,.956,2.747,2.122,2.122,0,0,0,1.26.851Z" transform="translate(-391.49 -501.5)" fill="#4f5a7a"/>
            </g>
            <g id="Group_304" data-name="Group 304" transform="translate(25.068 94.531)">
              <path id="Path_833" data-name="Path 833" d="M410.067,505.715l-.287-2.1.249-.028a16.339,16.339,0,0,0,3.9-.779l.243-.138.1.265a6.358,6.358,0,0,1,.309,2.271l-.475-.022a6.275,6.275,0,0,0-.2-1.829,19.027,19.027,0,0,1-3.581.691l.221,1.608Z" transform="translate(-409.78 -502.67)" fill="#4f5a7a"/>
            </g>
            <path id="Path_834" data-name="Path 834" d="M405.181,544.7a4.793,4.793,0,0,1,2.2-1.785,3.251,3.251,0,0,1,1.127-.321,2.334,2.334,0,0,1,1.542.586c1.492,1.21,1.553,3.062,2,4.764a67.322,67.322,0,0,1,1.536,6.687c.315,1.99.21,4.062.647,6.013.414,1.868.055,3.962.265,5.886a1.4,1.4,0,0,1-.16,1.05,1.137,1.137,0,0,1-.392.271,4.544,4.544,0,0,1-2.2.166c-.591-.055-1.183-.111-1.774-.16a.556.556,0,0,1-.3-.088.536.536,0,0,1-.155-.354c-.343-1.979-1.138-3.83-1.625-5.8-.558-2.255-1.061-4.532-1.8-6.737-.332-.995-.47-2.078-.735-3.089a31.964,31.964,0,0,1-.6-3.968A4.484,4.484,0,0,1,405.181,544.7Z" transform="translate(-382.428 -426.001)" fill="#454f6b"/>
            <path id="Path_835" data-name="Path 835" d="M403.3,511.8c-.017-1.006.442-3.4,1.873-2.675a3.518,3.518,0,0,0,1.89.326l3.294-.166c.122-.006.271-.039.293-.155a5.7,5.7,0,0,1,.995,1.879c.094.553-.011,1.2.028,1.768.1,1.636.116,3.277.072,4.913-.083,3.189-.4,6.367-.763,9.528a12.474,12.474,0,0,1-.586,2.924,5.2,5.2,0,0,1-2.327,2.807c-.984.558-2.056,1.487-3.078.409-1.431-1.509-1.365-4.51-1.4-6.422q-.075-3.913-.144-7.826Q403.36,515.452,403.3,511.8Z" transform="translate(-381.813 -410.965)" fill="#454f6b"/>
            <path id="Path_836" data-name="Path 836" d="M391.358,500.941l2.266.332a.706.706,0,0,0,.735-.862l-.227-1.674a.767.767,0,0,0-.608-.68l-2.266-.332a.706.706,0,0,0-.735.862l.227,1.674A.76.76,0,0,0,391.358,500.941Z" transform="translate(-376.094 -405.924)" fill="#dbd3e2"/>
            <path id="Path_837" data-name="Path 837" d="M384.227,458.984c.006.934-.077,2.515,2.614,3.658s6.8,1.21,11.141.464,5.781-1.879,6.079-2.553.741-9.787.956-12.169.624-10.434,1.724-13.634.5-8.279-1.288-9.39-5.289-.481-6.179-.846-6.809-1.663-7.931-2.6-2.581,1.409-3.487,3.161a29.991,29.991,0,0,0-3.023,8.771,101.175,101.175,0,0,0-.63,12.368C384.349,449.285,384.227,458.984,384.227,458.984Z" transform="translate(-373.257 -371.92)" fill="#f9d47a"/>
            <path id="Path_838" data-name="Path 838" d="M407.49,409.728a13.9,13.9,0,0,0-1.017,4.736,4.016,4.016,0,0,1-1.448,1.94c-.724.459-3.167,1.7-4.99,1.166a2.394,2.394,0,0,1-1.835-2.686,13.735,13.735,0,0,1,.4-2.426,7.771,7.771,0,0,0,.127-1.238c.006-.171.011-.287.011-.287a12.571,12.571,0,0,1-1.437-1.127.145.145,0,0,1-.028-.033,1.819,1.819,0,0,1-.221-.8,6.31,6.31,0,0,1,.05-1.592,24.863,24.863,0,0,1,1.641-3.907c.011-.05.475-1.371.553-1.586a.232.232,0,0,1,.011-.028,34.343,34.343,0,0,1,2.752-2.559,3.452,3.452,0,0,1,2.249-.309c.862.1,3.542.884,4.206,1.885C409.165,401.858,409.12,405.9,407.49,409.728Z" transform="translate(-379.007 -361.736)" fill="url(#linear-gradient-10)"/>
            <path id="Path_839" data-name="Path 839" d="M409.324,400.554a1.931,1.931,0,0,1,1.105,1.625,33.052,33.052,0,0,1-.033,3.52l.47,1.885s1.4-.475,1.636-.967a5.442,5.442,0,0,0,.464-2.94,3.453,3.453,0,0,0-.409-1.354,3.778,3.778,0,0,0-.8-1.553,17.041,17.041,0,0,0-5.471-3.261,2.744,2.744,0,0,0-2.349.321c-.387.254-1.647,1.194-1.647,1.194a10.138,10.138,0,0,1-.884.6,3.515,3.515,0,0,0-.785,1.011,3.445,3.445,0,0,0-.514,2.144c.475-1.371.564-1.614.564-1.614l2.117-2.045a4.684,4.684,0,0,1,1.415-.68,7.585,7.585,0,0,1,1.376.1Z" transform="translate(-380.371 -361.051)" fill="#b2686b"/>
            <path id="Path_840" data-name="Path 840" d="M401.283,404.594c-.011.2-1.033.724-1.232.995a2.284,2.284,0,0,0-.182,1.188.494.494,0,0,0,.227.315s-.293.641-.348.713-.2.265-.155.448-.144.276-.144.276-.337.387-.249.536a1.523,1.523,0,0,1,.127.343,2.3,2.3,0,0,0-.4,2.028c-.321.5-1.2.227-1.608.707a.144.144,0,0,1-.028-.033,1.818,1.818,0,0,1-.221-.8,6.308,6.308,0,0,1,.05-1.592,24.857,24.857,0,0,1,1.641-3.907c.011-.05.475-1.371.553-1.586l.8-.044C401.095,404.257,401.294,404.39,401.283,404.594Z" transform="translate(-379.011 -364.08)" fill="#ffdfd1"/>
            <path id="Path_841" data-name="Path 841" d="M405.733,418.893a1.962,1.962,0,0,1-.6.608,6.593,6.593,0,0,1-2.459-.088,22.6,22.6,0,0,0-3.045-.2,2.359,2.359,0,0,0-.862.116c.006-.171.011-.287.011-.287a12.573,12.573,0,0,1-1.437-1.127.148.148,0,0,1-.028-.033,1.819,1.819,0,0,1-.221-.8l.962.193a6.331,6.331,0,0,1,.9-.066,6.483,6.483,0,0,1,2.636.586,13.944,13.944,0,0,0,3.128,1.1Z" transform="translate(-379.035 -369.851)" fill="#ffdfd1"/>
            <path id="Path_842" data-name="Path 842" d="M405.545,423.37c-.309.768-.613,1.536-.923,2.3a7.1,7.1,0,0,1-.647,1.337,6.891,6.891,0,0,1-.774.928,1.814,1.814,0,0,1-.846.613,1.274,1.274,0,0,1-1.321-.7,4.221,4.221,0,0,1-.381-1.547,5.233,5.233,0,0,1,.066-2.68,11.869,11.869,0,0,0,.426,2.708c.127.448.508,1.431,1.138,1.238.58-.182,1.111-1.116,1.547-1.52a4.528,4.528,0,0,0,.807-1.232c.133-.238.21-.508.343-.735C405.142,423.823,405.429,423.663,405.545,423.37Z" transform="translate(-380.566 -372.664)" fill="#ffdfd1"/>
            <g id="Group_305" data-name="Group 305" transform="translate(29.07 62.731)">
              <path id="Path_843" data-name="Path 843" d="M417.109,472.447c-.321-1.044.332-9.953.492-11.694.044-.464.088-1.216.144-2.144.221-3.791.635-10.843,1.857-13.479l.475.221c-1.177,2.548-1.592,9.533-1.813,13.291-.055.94-.1,1.7-.144,2.166-.276,3.012-.763,10.672-.514,11.49Z" transform="translate(-417.022 -445.13)" fill="#ffd300"/>
            </g>
            <path id="Path_844" data-name="Path 844" d="M382.241,421.66l2.553-7.14c.658.182,3.526,3.288,5.206,4-.9-.028-3.227,3.581-3.741,4.648s-2.172,6.157-2.172,6.157-1.476-4.266-1.824-5.062S381.943,423.241,382.241,421.66Z" transform="translate(-372.288 -368.705)" fill="#f5c348"/>
            <path id="Path_845" data-name="Path 845" d="M377.5,391.881a9.86,9.86,0,0,1-.276,1.266l-.006.022c-.5,1.791-1.481,4.338-2.172,4.786-.287.282-2.012-2.559-2.879-4.25s-3.029-7.8-3.5-9.03a18.706,18.706,0,0,1-1.172-5.029c-.276-2.465-.724-10.8-.724-10.8s-.1-1.614-.144-2.155a1.253,1.253,0,0,0-.193-.558l-.006-.006a2.176,2.176,0,0,0-.7-.729c-.365-.227-.73-1.8-1.155-2.68s2-3.929,3.609-4.476,3.493,5.648,3.233,6.621-.807.956-.652,1.835,1.453,7.079,2.382,10.329a52,52,0,0,1,1.166,6.51c.249.934,1.813,4.432,2.166,5.261S377.7,390.439,377.5,391.881Z" transform="translate(-364.465 -343.513)" fill="url(#linear-gradient-11)"/>
            <path id="Path_846" data-name="Path 846" d="M414.327,404.769a3.654,3.654,0,0,1-3.41,1.757,3.149,3.149,0,0,1-.685-1.332l-.033-.1a.376.376,0,0,1-.017-.044c-.033-.1-.066-.193-.1-.276a.187.187,0,0,1-.022-.066,2.777,2.777,0,0,0-.21-.453,26.37,26.37,0,0,1-1.31-4.548,45.575,45.575,0,0,1-.768-4.88,20.334,20.334,0,0,0-.265-2.537c-.116-.431-2.752-10.268-3.46-13.23a44.435,44.435,0,0,0-1.365-4.725s-.188-.58-.243-.691-.238-.271-.453-.636a1.262,1.262,0,0,1-.088-.171,4.188,4.188,0,0,1-.216-.8c-.028-.116-.326-.862-.564-1.371a9.191,9.191,0,0,1-.619-2.421l1.083-1.26s2.874,3.349,3.94,4.731c.26.951,3.167,7.632,4.543,10.462a39.6,39.6,0,0,1,2.316,6.5c.083.271.442,2.172.613,3.133s1.713,7.693,1.757,8.876A9.364,9.364,0,0,1,414.327,404.769Z" transform="translate(-380.561 -347.443)" fill="url(#linear-gradient-5)"/>
            <g id="Group_306" data-name="Group 306" transform="translate(1.685)">
              <path id="Path_847" data-name="Path 847" d="M386.135,339.467l-12.976-7.494a1.826,1.826,0,0,0-1.846-.177l-2.393,1.393a1.827,1.827,0,0,1,1.846.177l12.976,7.494a5.7,5.7,0,0,1,2.581,4.465l-.044,14.916a1.8,1.8,0,0,1-.757,1.652l2.393-1.393a1.811,1.811,0,0,0,.757-1.652l.044-14.916A5.711,5.711,0,0,0,386.135,339.467Z" transform="translate(-368.119 -331.62)" fill="#3dd964"/>
              <path id="Path_848" data-name="Path 848" d="M383.088,341.989a5.7,5.7,0,0,1,2.581,4.465l-.044,14.916c-.006,1.636-1.177,2.293-2.6,1.476l-12.976-7.494a5.7,5.7,0,0,1-2.581-4.465l.044-14.916c.006-1.636,1.177-2.293,2.6-1.476Z" transform="translate(-367.47 -332.749)" fill="#47fb76"/>
            </g>
            <path id="Path_849" data-name="Path 849" d="M411.193,409.441a2.773,2.773,0,0,0-.21-.453,26.373,26.373,0,0,1-1.31-4.548,45.6,45.6,0,0,1-.768-4.88,20.327,20.327,0,0,0-.265-2.537c-.116-.431-2.752-10.268-3.46-13.23a44.445,44.445,0,0,0-1.365-4.725s-.188-.58-.243-.691-.238-.271-.453-.636a1.262,1.262,0,0,1-.088-.171c.265.453.94.768,1.078.9s-.05.613-.044.729,3.482,12.893,3.846,14.021.962,4.15,1.177,4.6a9.754,9.754,0,0,0,.768,1.221l-.658-.177.326,3.46C409.518,402.323,410.463,407.308,411.193,409.441Z" transform="translate(-381.692 -352.176)" fill="#ffdfd1"/>
            <path id="Path_850" data-name="Path 850" d="M406.092,379.954c.8-.564,1.608-.58,1.846.017.155.4,2.813,5.477,4.747,10.075a57.481,57.481,0,0,1,1.962,5.875,2.265,2.265,0,0,1-.868,2.686c-1.127.575-2.161,1.05-2.642.481S405.7,380.612,406.092,379.954Z" transform="translate(-383.052 -353.051)" fill="url(#linear-gradient-13)"/>
            <path id="Path_851" data-name="Path 851" d="M417.763,411.52c1.017.315.951.111,1.255,1.459s1.669,7.991,1.7,9.063a2.39,2.39,0,0,1-1.807,2.3c-1.072.326-2.664-1.6-2.769-2.365s-1.089-5.311-.829-6.074a6.993,6.993,0,0,0,.238-1.934l.674-1.116Z" transform="translate(-387.169 -367.363)" fill="url(#linear-gradient-14)"/>
            <path id="Path_852" data-name="Path 852" d="M378.762,399.586c-.5,1.791-1.481,4.338-2.172,4.786-.287.282-2.012-2.559-2.879-4.25s-3.029-7.8-3.5-9.03a18.707,18.707,0,0,1-1.172-5.029c-.276-2.465-.724-10.8-.724-10.8s-.1-1.614-.144-2.155a1.251,1.251,0,0,0-.193-.558,3.5,3.5,0,0,0,.956.823,7.483,7.483,0,0,0,1.476.022,3.231,3.231,0,0,1-1.227.265,3.013,3.013,0,0,1-.757-.077s.343,4.681.414,6.682.326,4.421.431,5.631a26.718,26.718,0,0,0,1.337,5.151,2.614,2.614,0,0,0,.735.884,1.336,1.336,0,0,0-.122.6c.011.359,1.194,3.393,1.752,5.134s3.437,6.322,3.647,6.074A21.846,21.846,0,0,0,378.762,399.586Z" transform="translate(-366.013 -349.93)" fill="#ffdfd1"/>
            <path id="Path_853" data-name="Path 853" d="M377.281,404.155c-.9.221-2.111,1.547-1.918,2.526a15.97,15.97,0,0,0,.912,2.819c.387.978.768,1.962,1.216,2.918a4.129,4.129,0,0,0,1.31,1.929c.193.122.2.2.442.1a.856.856,0,0,0,.326-.287,4.282,4.282,0,0,0,.4-.8,13.623,13.623,0,0,0,.669-1.641,7.593,7.593,0,0,0,.542-1.846c.033-.558-.536-1.31-.735-1.857-.2-.575-.492-1.116-.685-1.691a5.783,5.783,0,0,0-.591-1.288A1.8,1.8,0,0,0,377.281,404.155Z" transform="translate(-369.307 -364.049)" fill="url(#linear-gradient-15)"/>
            <path id="Path_854" data-name="Path 854" d="M370.613,377.2c.265-.017.437-.122.636.066a3.263,3.263,0,0,1,.431.812,39.285,39.285,0,0,1,2.653,6.543,18.129,18.129,0,0,1,1.21,6.781,3.709,3.709,0,0,1-.553,1.868,3.459,3.459,0,0,1-.906.84,1.729,1.729,0,0,1-1.359.37c-.58-.16-.879-.785-1.078-1.348a30.493,30.493,0,0,1-1.266-5.339c-.254-1.586-.779-8.185-.8-9.9a.774.774,0,0,1,.265-.707C370.094,377.026,370.337,377.208,370.613,377.2Z" transform="translate(-366.728 -351.974)" fill="url(#linear-gradient-16)"/>
            <path id="Path_855" data-name="Path 855" d="M420.649,426.76a2.488,2.488,0,0,1,1.227,2.205,16.58,16.58,0,0,1-.348,4.233,16.791,16.791,0,0,1-2.05,5.106c-.718.862-2.857.348-3.476-1.172a17.129,17.129,0,0,1-1.122-5.195,9.052,9.052,0,0,1,1.42-4.377C416.825,426.981,420.649,426.76,420.649,426.76Z" transform="translate(-386.993 -374.181)" fill="#f5c348"/>
            <path id="Path_856" data-name="Path 856" d="M400.558,361.4l-.42-.757-1.348-1.05s-1.122-.464-1.166-.79.083-.508.337-.531a11.6,11.6,0,0,1,1.807.63l1.194.558.188-.16-.321-.47-1.393-.912a9.149,9.149,0,0,1-1.614-.868c-.149-.221-.1-.846.221-.812s2.006.553,2.006.553l1.735.757s-1.481-1.232-1.575-1.238-1.2-.47-1.36-.812a.626.626,0,0,1,.3-.8,2.649,2.649,0,0,1,.84.177l.531.039,1.243.768-.227-1.31a7.485,7.485,0,0,1-.011-1.978c.171-.293.5-.359.613-.166a7.7,7.7,0,0,1,.271,1.1s.591,3.2.724,3.443.729,2,.768,2.078a4.786,4.786,0,0,1,.536,1.116c.005.249-.055.613-.149,1.426s-.088,3.393-.05,3.67a1.085,1.085,0,0,1-1.122,1.2,2.728,2.728,0,0,1-2.316-1.481,5.914,5.914,0,0,1-.044-1.851A9.036,9.036,0,0,0,400.558,361.4Z" transform="translate(-379.27 -340.791)" fill="url(#linear-gradient-17)"/>
            <path id="Path_857" data-name="Path 857" d="M401.969,364.461c-.011-.072-1.232-1.52-1.232-1.52l-1.144-.868s-2.592-1.3-2.476-1.862.453-.216.475-.066.254.326.254.326l2.122,1.188,1,.575s.917,1.426,1.028,1.669A.8.8,0,0,1,401.969,364.461Z" transform="translate(-379.046 -344.272)" fill="#ffdfd1"/>
            <path id="Path_858" data-name="Path 858" d="M402.243,359.578l.475.4,1.122,1.791-.055-.414-1.31-1.951s-1.5-1.166-1.735-1.337-1.4-.437-1.36-.906-.519-.5-.519-.5l-.221.8,1.47.823Z" transform="translate(-379.729 -342.822)" fill="#ffdfd1"/>
            <path id="Path_859" data-name="Path 859" d="M403.438,355.062l.857.6.332.315-.857-1.072a16.034,16.034,0,0,1-.365-3.106c.16-.37.4-.851.4-.851s-1.05-.232-1.127-.221-1.315,1.2-1.315,1.2Z" transform="translate(-380.945 -340.168)" fill="#ffdfd1"/>
            <path id="Path_860" data-name="Path 860" d="M396.4,362.839c-.105.332.044.536.348.8a9.328,9.328,0,0,0,1.122.691s1.31.967,1.365,1.05.414.939.42.984.182,1.21.177,1.271-.232,1.465-.232,1.465l-2.94-4.277L395.1,362.74Z" transform="translate(-378.145 -345.541)" fill="#ffdfd1"/>
            <path id="Path_861" data-name="Path 861" d="M366.393,363.052l1.221-.044a4.152,4.152,0,0,0,1.559.42.447.447,0,0,0,.182-.707c-.138-.111-1.586-.829-1.586-.829s-1.6-.387-1.752-.4a2.506,2.506,0,0,0-.392.006l.774-.376,1.271.177s1.326.724,1.437.741.68-.315.624-.58-.475-.608-.475-.608l-1.581-.879s-1.426-.718-1.5-.718a.766.766,0,0,0-.508.171,2.827,2.827,0,0,0-.531.735c-.044.116-.21.873-.249,1.133a3.518,3.518,0,0,1-.193.652.956.956,0,0,0-.271.691,21.619,21.619,0,0,0,1.078,3.045,3.464,3.464,0,0,0,.879.934s.724-.636.685-1.149A18.615,18.615,0,0,0,366.393,363.052Z" transform="translate(-364.421 -343.98)" fill="url(#linear-gradient-18)"/>
            <path id="Path_862" data-name="Path 862" d="M366.469,353.64a5.362,5.362,0,0,1,1.127.32.761.761,0,0,1,.37.564c.017.249-.448.492-.68.536s-.68.094-.68.094l.061.426.011,1.238s-.89.807-1.006.431a18.32,18.32,0,0,1-.613-2.183c-.006-.354.984-1.249,1.05-1.282S366.469,353.64,366.469,353.64Z" transform="translate(-364.707 -341.471)" fill="url(#linear-gradient-19)"/>
            <path id="Path_863" data-name="Path 863" d="M370.528,365.674c-.006.017-.006.033-.011.05-.055.282-.144.392-.387.42a9.074,9.074,0,0,1-1.625-.481,6.708,6.708,0,0,0-.962-.028,6.546,6.546,0,0,0-.63.326.635.635,0,0,0-.193.216l.448.111.149.343s.354-.2.426-.061a4.715,4.715,0,0,0,.68.613s2.387.077,2.515-.265-.287-1.288-.287-1.288Z" transform="translate(-365.449 -346.834)" fill="#ffdfd1"/>
            <path id="Path_864" data-name="Path 864" d="M370.782,362.428a.588.588,0,0,1-.033.061c-.16.3-.243.4-.531.459a1.9,1.9,0,0,1-.89-.271l-1.194-.652-1.072.1-.453.575.724-.221,2.15.63,1.42.459.613-.729-.238-.862Z" transform="translate(-365.4 -345.202)" fill="#ffdfd1"/>
            <path id="Path_865" data-name="Path 865" d="M368.844,354.47a.861.861,0,0,1-.735.691c-.459.033-.962.028-.962.028l-.066.37-.271.459.193.658.149.857,1.116-.232,1.641-1.4Z" transform="translate(-365.489 -341.842)" fill="#ffdfd1"/>
          </g>
        </g>
        <g id="Group_383" data-name="Group 383" transform="translate(253.496 111.992)">
          <g id="Group_333" data-name="Group 333" transform="translate(39.183)">
            <g id="Group_332" data-name="Group 332">
              <g id="Group_309" data-name="Group 309" transform="translate(23.062 58.315)">
                <path id="Path_866" data-name="Path 866" d="M694.579,339.78l-5.869-3.41,1.785,8.483,5.864,3.41Z" transform="translate(-688.71 -336.37)" fill="#8f8a93"/>
              </g>
              <g id="Group_310" data-name="Group 310" transform="translate(42.819 8.897)">
                <path id="Path_867" data-name="Path 867" d="M739.144,250.36l-5.869-3.41-8.815,5.245,5.869,3.41Z" transform="translate(-724.46 -246.95)" fill="#948f99"/>
              </g>
              <g id="Group_312" data-name="Group 312" transform="translate(37.641 10.616)">
                <g id="Group_311" data-name="Group 311" clip-path="url(#clip-path-3)">
                  <path id="Path_868" data-name="Path 868" d="M723.291,254.426l-5.869-3.41a9.291,9.291,0,0,0-2.332-.956l5.869,3.41A9.287,9.287,0,0,1,723.291,254.426Z" transform="translate(-715.09 -250.06)" fill="#a49eaa"/>
                </g>
              </g>
              <g id="Group_314" data-name="Group 314" transform="translate(3.465 64.35)">
                <g id="Group_313" data-name="Group 313" clip-path="url(#clip-path-4)">
                  <path id="Path_870" data-name="Path 870" d="M659.119,350.7l-5.869-3.41a13.451,13.451,0,0,0,2.194,2.249l5.869,3.41A13.238,13.238,0,0,1,659.119,350.7Z" transform="translate(-653.25 -347.29)" fill="#a49eaa"/>
                </g>
              </g>
              <g id="Group_315" data-name="Group 315" transform="translate(3.465 53.463)">
                <path id="Path_872" data-name="Path 872" d="M664.607,331l-5.864-3.41-5.493,10.887,5.869,3.41Z" transform="translate(-653.25 -327.59)" fill="#b0aab6"/>
              </g>
              <g id="Group_316" data-name="Group 316" transform="translate(29.799 0.326)">
                <path id="Path_873" data-name="Path 873" d="M712.063,234.85l-5.864-3.41L700.9,242.4l5.864,3.41Z" transform="translate(-700.9 -231.44)" fill="#b0a9b6"/>
              </g>
              <g id="Group_318" data-name="Group 318" transform="translate(35.093)">
                <g id="Group_317" data-name="Group 317" clip-path="url(#clip-path-5)">
                  <path id="Path_874" data-name="Path 874" d="M720.875,234.293l-5.869-3.41a18.544,18.544,0,0,0-4.526.293l5.869,3.41A18.509,18.509,0,0,1,720.875,234.293Z" transform="translate(-710.48 -230.851)" fill="#a49eaa"/>
                </g>
              </g>
              <g id="Group_320" data-name="Group 320" transform="translate(7.422 43.255)">
                <g id="Group_319" data-name="Group 319" clip-path="url(#clip-path-6)">
                  <path id="Path_876" data-name="Path 876" d="M666.389,312.53l-5.869-3.41c-.072.851-.116,1.7-.111,2.537a18.065,18.065,0,0,0,1.531,7.671l5.869,3.41a17.979,17.979,0,0,1-1.531-7.671C666.279,314.232,666.323,313.381,666.389,312.53Z" transform="translate(-660.409 -309.12)" fill="#a49eaa"/>
                </g>
              </g>
              <g id="Group_322" data-name="Group 322" transform="translate(23.029 11.29)">
                <g id="Group_321" data-name="Group 321" clip-path="url(#clip-path-7)">
                  <path id="Path_878" data-name="Path 878" d="M701.284,254.69l-5.869-3.41a22.438,22.438,0,0,0-3.382,1.608,29.054,29.054,0,0,0-3.382,2.3l5.869,3.41a28.145,28.145,0,0,1,3.382-2.3A23.572,23.572,0,0,1,701.284,254.69Z" transform="translate(-688.65 -251.28)" fill="#a49eaa"/>
                </g>
              </g>
              <g id="Group_324" data-name="Group 324" transform="translate(10.075 23.57)">
                <g id="Group_323" data-name="Group 323" clip-path="url(#clip-path-8)">
                  <path id="Path_880" data-name="Path 880" d="M676.213,276.91l-5.869-3.41a45.847,45.847,0,0,0-5.134,9.472l5.869,3.41A46.248,46.248,0,0,1,676.213,276.91Z" transform="translate(-665.21 -273.5)" fill="#a49eaa"/>
                </g>
              </g>
              <g id="Group_325" data-name="Group 325" transform="translate(1.26 33.042)">
                <path id="Path_882" data-name="Path 882" d="M663.944,294.05l-5.869-3.41-8.815,4.941,5.869,3.41Z" transform="translate(-649.26 -290.64)" fill="#928d97"/>
              </g>
              <g id="Group_327" data-name="Group 327" transform="translate(0 37.983)">
                <g id="Group_326" data-name="Group 326" clip-path="url(#clip-path-9)">
                  <path id="Path_883" data-name="Path 883" d="M654.109,302.99l-5.869-3.41a48.494,48.494,0,0,0-1.26,5.62l5.869,3.41A48.507,48.507,0,0,1,654.109,302.99Z" transform="translate(-646.98 -299.58)" fill="#a49eaa"/>
                </g>
              </g>
              <g id="Group_329" data-name="Group 329" transform="translate(13.186 10.373)">
                <g id="Group_328" data-name="Group 328" clip-path="url(#clip-path-10)">
                  <path id="Path_885" data-name="Path 885" d="M681.219,253.03l-5.869-3.41a57.248,57.248,0,0,0-4.51,4.919l5.869,3.41A57.282,57.282,0,0,1,681.219,253.03Z" transform="translate(-670.84 -249.62)" fill="#a49eaa"/>
                </g>
              </g>
              <g id="Group_330" data-name="Group 330" transform="translate(5.875 3.41)">
                <path id="Path_887" data-name="Path 887" d="M675.3,247.394a57.278,57.278,0,0,0-4.51,4.919l2.028,8.279a45.845,45.845,0,0,0-5.134,9.472L658.87,275a48.5,48.5,0,0,0-1.26,5.62l7.538-.348c-.072.851-.116,1.7-.111,2.537a18.064,18.064,0,0,0,1.531,7.671l-5.493,10.887a13.449,13.449,0,0,0,2.194,2.249l7.4-8.538c2.68,1.509,6.14,1.669,10,.26l1.779,8.483c.569-.276,1.144-.591,1.719-.923s1.15-.68,1.719-1.061l1.724-10.506a41.876,41.876,0,0,0,9.975-11.794l7.428-.022c.8-1.57,1.52-3.172,2.177-4.78l-5.537-4.521a32.373,32.373,0,0,0,1.476-9.4,22.011,22.011,0,0,0-.127-2.387l7.522-8.356a21.349,21.349,0,0,0-1.288-4.15l-8.815,5.245a9.288,9.288,0,0,0-5.178-3.526l1.979-10.583a18.543,18.543,0,0,0-4.526.293l-5.3,10.965a22.439,22.439,0,0,0-3.382,1.608,29.045,29.045,0,0,0-3.382,2.3Z" transform="translate(-657.61 -237.021)" fill="#c1c2c5"/>
              </g>
              <g id="Group_331" data-name="Group 331" transform="translate(13.186 15.291)">
                <path id="Path_888" data-name="Path 888" d="M676.709,261.93l-5.869-3.41,2.028,8.284,5.864,3.4Z" transform="translate(-670.84 -258.52)" fill="#8d8891"/>
              </g>
            </g>
          </g>
          <g id="Group_364" data-name="Group 364" transform="translate(0 10.566)">
            <g id="Group_363" data-name="Group 363">
              <g id="Group_334" data-name="Group 334" transform="translate(39.713 17.176)">
                <path id="Path_889" data-name="Path 889" d="M657.567,283.78l-4.7-2.73-4.93.276,4.7,2.73Z" transform="translate(-647.94 -281.05)" fill="#77737b"/>
              </g>
              <g id="Group_335" data-name="Group 335" transform="translate(19.431 50.164)">
                <path id="Path_890" data-name="Path 890" d="M615.937,343.47l-4.7-2.73,1.332,5.118,4.7,2.73Z" transform="translate(-611.24 -340.74)" fill="#8c8790"/>
              </g>
              <g id="Group_336" data-name="Group 336" transform="translate(34.889 2.935)">
                <path id="Path_891" data-name="Path 891" d="M649.113,258.01l-4.7-2.73-5.206,4.681,4.7,2.73Z" transform="translate(-639.21 -255.28)" fill="#a29ca7"/>
              </g>
              <g id="Group_338" data-name="Group 338" transform="translate(6.333 55.867)">
                <g id="Group_337" data-name="Group 337" clip-path="url(#clip-path-11)">
                  <path id="Path_892" data-name="Path 892" d="M592.237,353.8l-4.7-2.73c.066.044.138.083.21.127l4.7,2.73C592.376,353.883,592.309,353.839,592.237,353.8Z" transform="translate(-587.54 -351.064)" fill="#a49eaa"/>
                </g>
              </g>
              <g id="Group_339" data-name="Group 339" transform="translate(6.339 48.992)">
                <path id="Path_894" data-name="Path 894" d="M594.541,341.35l-4.7-2.73-2.294,6.88,4.692,2.73Z" transform="translate(-587.55 -338.62)" fill="#aea7b3"/>
              </g>
              <g id="Group_341" data-name="Group 341" transform="translate(31.042 6.344)">
                <g id="Group_340" data-name="Group 340" clip-path="url(#clip-path-12)">
                  <path id="Path_895" data-name="Path 895" d="M640.573,265.319l-4.7-2.73a8.866,8.866,0,0,0-3.625-1.138l4.7,2.73A8.867,8.867,0,0,1,640.573,265.319Z" transform="translate(-632.25 -261.45)" fill="#a49eaa"/>
                </g>
              </g>
              <g id="Group_343" data-name="Group 343" transform="translate(5.692 44.306)">
                <g id="Group_342" data-name="Group 342" clip-path="url(#clip-path-13)">
                  <path id="Path_897" data-name="Path 897" d="M591.078,332.87l-4.7-2.73a10.415,10.415,0,0,0,2.946,4.686l4.7,2.73A10.293,10.293,0,0,1,591.078,332.87Z" transform="translate(-586.38 -330.14)" fill="#a49eaa"/>
                </g>
              </g>
              <g id="Group_344" data-name="Group 344" transform="translate(24.582 0.696)">
                <path id="Path_899" data-name="Path 899" d="M628.269,253.96l-4.7-2.73-3.012,6.836,4.7,2.73Z" transform="translate(-620.56 -251.23)" fill="#b0a9b5"/>
              </g>
              <g id="Group_346" data-name="Group 346" transform="translate(27.594)">
                <g id="Group_345" data-name="Group 345" clip-path="url(#clip-path-14)">
                  <path id="Path_900" data-name="Path 900" d="M634.653,252.7l-4.7-2.73a16.961,16.961,0,0,0-3.946.7l4.7,2.73A16.724,16.724,0,0,1,634.653,252.7Z" transform="translate(-626.01 -249.97)" fill="#a49eaa"/>
                </g>
              </g>
              <g id="Group_348" data-name="Group 348" transform="translate(19.94 7.533)">
                <g id="Group_347" data-name="Group 347" clip-path="url(#clip-path-15)">
                  <path id="Path_902" data-name="Path 902" d="M621.5,266.33l-4.7-2.73a21.056,21.056,0,0,0-2.321,1.155,27.41,27.41,0,0,0-2.321,1.52l4.7,2.73a25.338,25.338,0,0,1,2.321-1.52A22.629,22.629,0,0,1,621.5,266.33Z" transform="translate(-612.16 -263.6)" fill="#a49eaa"/>
                </g>
              </g>
              <g id="Group_349" data-name="Group 349" transform="translate(0 37.547)">
                <path id="Path_904" data-name="Path 904" d="M585.7,320.64l-4.7-2.73-4.919,5.4,4.7,2.73Z" transform="translate(-576.08 -317.91)" fill="#a8a2ae"/>
              </g>
              <g id="Group_351" data-name="Group 351" transform="translate(0 42.952)">
                <g id="Group_350" data-name="Group 350" clip-path="url(#clip-path-16)">
                  <path id="Path_905" data-name="Path 905" d="M580.777,330.42l-4.7-2.73a23.271,23.271,0,0,0,.5,3.891l4.7,2.73A23.857,23.857,0,0,1,580.777,330.42Z" transform="translate(-576.08 -327.69)" fill="#a49eaa"/>
                </g>
              </g>
              <g id="Group_353" data-name="Group 353" transform="translate(4.924 30.639)">
                <g id="Group_352" data-name="Group 352" clip-path="url(#clip-path-17)">
                  <path id="Path_907" data-name="Path 907" d="M590.876,308.14l-4.7-2.73a30.284,30.284,0,0,0-1.188,6.908l4.7,2.73A29.689,29.689,0,0,1,590.876,308.14Z" transform="translate(-584.99 -305.41)" fill="#a49eaa"/>
                </g>
              </g>
              <g id="Group_355" data-name="Group 355" transform="translate(9.677 16.474)">
                <g id="Group_354" data-name="Group 354" clip-path="url(#clip-path-18)">
                  <path id="Path_909" data-name="Path 909" d="M602.112,282.51l-4.7-2.73a42.2,42.2,0,0,0-3.824,5.7l4.7,2.73A41.849,41.849,0,0,1,602.112,282.51Z" transform="translate(-593.59 -279.78)" fill="#a49eaa"/>
                </g>
              </g>
              <g id="Group_356" data-name="Group 356" transform="translate(12.965 10.727)">
                <path id="Path_911" data-name="Path 911" d="M604.237,272.1l-4.7-2.725.536,5.748,4.7,2.73Z" transform="translate(-599.54 -269.38)" fill="#96919b"/>
              </g>
              <g id="Group_358" data-name="Group 358" transform="translate(12.965 6.869)">
                <g id="Group_357" data-name="Group 357" clip-path="url(#clip-path-19)">
                  <path id="Path_912" data-name="Path 912" d="M608.172,265.13l-4.7-2.73a43.018,43.018,0,0,0-3.935,3.852l4.7,2.73A43.779,43.779,0,0,1,608.172,265.13Z" transform="translate(-599.54 -262.4)" fill="#a49eaa"/>
                </g>
              </g>
              <g id="Group_359" data-name="Group 359" transform="translate(4.46 22.172)">
                <path id="Path_914" data-name="Path 914" d="M594.065,292.82l-4.7-2.73-5.217,1.332,4.7,2.73Z" transform="translate(-584.15 -290.09)" fill="#817c85"/>
              </g>
              <g id="Group_361" data-name="Group 361" transform="translate(2.36 23.504)">
                <g id="Group_360" data-name="Group 360" clip-path="url(#clip-path-20)">
                  <path id="Path_915" data-name="Path 915" d="M587.148,295.23l-4.7-2.73a49.108,49.108,0,0,0-2.1,5.09l4.7,2.73A49.14,49.14,0,0,1,587.148,295.23Z" transform="translate(-580.35 -292.5)" fill="#a49eaa"/>
                </g>
              </g>
              <g id="Group_362" data-name="Group 362" transform="translate(4.703 2.719)">
                <path id="Path_917" data-name="Path 917" d="M601.484,261.77a43.034,43.034,0,0,0-3.935,3.852l.536,5.748a42.2,42.2,0,0,0-3.824,5.7l-5.217,1.337a49.116,49.116,0,0,0-2.1,5.09l3.752,2.045a30.284,30.284,0,0,0-1.188,6.908l-4.919,5.4a23.271,23.271,0,0,0,.5,3.891l5.189-2.537a10.414,10.414,0,0,0,2.946,4.686l-2.3,6.88a10.537,10.537,0,0,0,2.537,1.116l4.233-5.946a12.684,12.684,0,0,0,6.322-.879l1.332,5.112c.536-.26,1.078-.558,1.63-.873s1.089-.647,1.63-1.011l1.3-6.632a35.26,35.26,0,0,0,6.306-6.416l4.255,1.044c.89-1.3,1.741-2.653,2.52-4.04l-2.327-4.211a38.023,38.023,0,0,0,2.9-8.058l5.184-3.454a34.765,34.765,0,0,0,.475-4.454l-4.93.271a15.865,15.865,0,0,0-1.227-5.5l3.719-6.361a11.5,11.5,0,0,0-2.117-2.658l-5.206,4.686a8.79,8.79,0,0,0-3.846-1.271l.5-6.35a17.011,17.011,0,0,0-3.946.7l-3.012,6.836a21.061,21.061,0,0,0-2.321,1.155,27.4,27.4,0,0,0-2.321,1.52Z" transform="translate(-584.59 -254.89)" fill="#c1c2c5"/>
              </g>
            </g>
          </g>
          <g id="Group_371" data-name="Group 371" transform="translate(12.396 23.298)">
            <g id="Group_370" data-name="Group 370" transform="translate(0 0)">
              <g id="Group_366" data-name="Group 366" transform="translate(16.425 3.398)">
                <g id="Group_365" data-name="Group 365" clip-path="url(#clip-path-21)">
                  <path id="Path_918" data-name="Path 918" d="M639.161,281.048l-1.763-1.022c-2.343-1.359-5.587-1.172-9.168.9l1.763,1.022C633.574,279.877,636.818,279.684,639.161,281.048Z" transform="translate(-628.23 -279.157)" fill="#91869a"/>
                </g>
              </g>
              <g id="Group_368" data-name="Group 368" transform="translate(3.592 5.163)">
                <g id="Group_367" data-name="Group 367" clip-path="url(#clip-path-22)">
                  <path id="Path_920" data-name="Path 920" d="M619.611,283.372l-1.763-1.022c-7.118,4.106-12.866,14.065-12.838,22.239.011,4.062,1.448,6.919,3.758,8.262l1.763,1.022c-2.316-1.343-3.747-4.2-3.758-8.262C606.745,297.437,612.493,287.484,619.611,283.372Z" transform="translate(-605.01 -282.35)" fill="#91869a"/>
                </g>
              </g>
              <g id="Group_369" data-name="Group 369">
                <ellipse id="Ellipse_18" data-name="Ellipse 18" cx="18.16" cy="10.517" rx="18.16" ry="10.517" transform="translate(0 31.402) rotate(-59.84)" fill="#a89cb2"/>
              </g>
            </g>
          </g>
          <g id="Group_375" data-name="Group 375" transform="translate(26.03 38.424)">
            <g id="Group_374" data-name="Group 374">
              <g id="Group_373" data-name="Group 373" transform="translate(6.748 3.408)">
                <ellipse id="Ellipse_19" data-name="Ellipse 19" cx="7.057" cy="4.084" rx="7.057" ry="4.084" transform="translate(0 12.204) rotate(-59.835)" fill="#a89cb2"/>
              </g>
              <path id="Path_922" data-name="Path 922" d="M631.729,300.716a3.526,3.526,0,0,0-3.559.348,11.011,11.011,0,0,0-4.991,8.643,3.5,3.5,0,0,0,1.459,3.205l8.809,5.118a3.486,3.486,0,0,1-1.459-3.205,10.98,10.98,0,0,1,4.99-8.638,3.526,3.526,0,0,1,3.559-.348Z" transform="translate(-623.18 -300.378)" fill="#cfccd2"/>
            </g>
          </g>
          <g id="Group_382" data-name="Group 382" transform="translate(63.593 31.016)">
            <g id="Group_381" data-name="Group 381">
              <g id="Group_377" data-name="Group 377" transform="translate(6.228)">
                <g id="Group_376" data-name="Group 376" clip-path="url(#clip-path-23)">
                  <path id="Path_923" data-name="Path 923" d="M717.867,293.791l-11-6.394c-1.138-.663-2.713-.569-4.449.437l11,6.394C715.159,293.222,716.734,293.128,717.867,293.791Z" transform="translate(-702.42 -286.974)" fill="#b0a9b6"/>
                </g>
              </g>
              <g id="Group_379" data-name="Group 379" transform="translate(0 0.86)">
                <g id="Group_378" data-name="Group 378" clip-path="url(#clip-path-24)">
                  <path id="Path_925" data-name="Path 925" d="M708.386,294.924l-11-6.394a13.736,13.736,0,0,0-6.228,10.793c.006,1.967.7,3.355,1.824,4.007l11,6.394c-1.122-.652-1.818-2.039-1.824-4.007A13.712,13.712,0,0,1,708.386,294.924Z" transform="translate(-691.154 -288.53)" fill="#b0a9b6"/>
                </g>
              </g>
              <g id="Group_380" data-name="Group 380" transform="translate(11.003 6.395)">
                <path id="Path_927" data-name="Path 927" d="M717.288,299.4A13.736,13.736,0,0,0,711.06,310.2c.011,3.962,2.824,5.565,6.273,3.576a13.744,13.744,0,0,0,6.228-10.793C723.544,299.007,720.731,297.41,717.288,299.4Z" transform="translate(-711.06 -298.546)" fill="#a89cb2"/>
              </g>
            </g>
          </g>
        </g>
      </g>
    </g>
  </g>
</svg>
